<?xml version="1.0" standalone="no"?>
<!DOCTYPE svg PUBLIC "-//W3C//DTD SVG 1.1//EN" "http://www.w3.org/Graphics/SVG/1.1/DTD/svg11.dtd" >
<svg xmlns="http://www.w3.org/2000/svg">
<metadata>
Created by FontPrep 20130207 at Wed Mar 30 14:37:36 2016
 By Jeff Ginsburg
Copyright (c) 2016 by Radomir Tinkov. All rights reserved.
</metadata>
<defs>
<font id="71a5c2b66fd41ec5b6dc09a27abbb7f2" horiz-adv-x='1024' >
  <font-face 
    font-family="RidleyGroteskDemo-Regular"
    font-weight="400"
    font-stretch="normal"
    units-per-em="2048"
    panose-1="0 0 5 0 0 0 0 0 0 0"
    ascent="1638"
    descent="-410"
    x-height="1004"
    cap-height="1434"
    bbox="-18 -440 2097 1638"
    underline-thickness="102"
    underline-position="-102"
    unicode-range="U+0020-2265"
  />
<missing-glyph horiz-adv-x="1024" 
d="M682 -37h-340v-67h143l-143 -97v-67h340v67h-209l143 97h66v67zM614 174v-96h-204v96h204zM682 242h-340v-232h340v232zM682 596h-205v-115h70v47h67v-96h-204v164h-68v-231h340v231zM682 846h-68v-135h-272v-70h340v205zM682 969h-340v-68h135v-76h-135v-67h205v143h135
v68zM477 1167v-73h-67v73h67zM547 1237h-205v-213h340v70h-135v143zM682 1501h-338v-67h133v-76h-135v-68h340v68h-135v76h135v67zM840 1638v-2048h-650v2048h650z" />
    <glyph glyph-name="f_f" unicode="ff" 
 />
    <glyph glyph-name="f_f_i" unicode="ffi" 
 />
    <glyph glyph-name=".notdef" horiz-adv-x="1024" 
d="M682 -37h-340v-67h143l-143 -97v-67h340v67h-209l143 97h66v67zM614 174v-96h-204v96h204zM682 242h-340v-232h340v232zM682 596h-205v-115h70v47h67v-96h-204v164h-68v-231h340v231zM682 846h-68v-135h-272v-70h340v205zM682 969h-340v-68h135v-76h-135v-67h205v143h135
v68zM477 1167v-73h-67v73h67zM547 1237h-205v-213h340v70h-135v143zM682 1501h-338v-67h133v-76h-135v-68h340v68h-135v76h135v67zM840 1638v-2048h-650v2048h650z" />
    <glyph glyph-name=".null" horiz-adv-x="0" 
 />
    <glyph glyph-name="nonmarkingreturn" horiz-adv-x="681" 
 />
    <glyph glyph-name="space" unicode=" " horiz-adv-x="624" 
 />
    <glyph glyph-name="exclam" unicode="!" horiz-adv-x="595" 
d="M422 100q0 -52 -36 -86t-88 -34t-88 34t-36 86q0 51 36 86t88 35t88 -35t36 -86zM215 1434h164v-308l-33 -675h-98l-33 675v308z" />
    <glyph glyph-name="quotedbl" unicode="&#x22;" 
 />
    <glyph glyph-name="numbersign" unicode="#" 
 />
    <glyph glyph-name="dollar" unicode="$" 
 />
    <glyph glyph-name="percent" unicode="%" 
 />
    <glyph glyph-name="ampersand" unicode="&#x26;" 
 />
    <glyph glyph-name="quotesingle" unicode="'" horiz-adv-x="378" 
d="M109 1434h163v-236l-32 -311h-101l-30 311v236z" />
    <glyph glyph-name="parenleft" unicode="(" 
 />
    <glyph glyph-name="parenright" unicode=")" 
 />
    <glyph glyph-name="asterisk" unicode="*" 
 />
    <glyph glyph-name="plus" unicode="+" 
 />
    <glyph glyph-name="comma" unicode="," horiz-adv-x="534" 
d="M135 100q0 51 36 86q35 35 97 35t103 -58t41 -156t-66 -198t-186 -157l-47 65q164 106 161 265q-61 -2 -100 32t-39 86z" />
    <glyph glyph-name="hyphen" unicode="-" 
 />
    <glyph glyph-name="period" unicode="." horiz-adv-x="493" 
d="M371 100q0 -52 -36 -86t-88 -34t-88 34t-36 86q0 51 36 86t88 35t88 -35t36 -86z" />
    <glyph glyph-name="slash" unicode="/" horiz-adv-x="964" 
 />
    <glyph glyph-name="zero" unicode="0" horiz-adv-x="1695" 
d="M848 137q254 0 413 167t158 413q1 245 -159 413t-412 168t-412 -168t-160 -414t159 -412q159 -167 413 -167zM848 -20q-319 0 -527 216t-208 521t208 521t527 216t527 -216t208 -521t-208 -521t-527 -216z" />
    <glyph glyph-name="one" unicode="1" horiz-adv-x="948" 
d="M731 1434v-1434h-164v1247l-446 -172l-53 154l532 205h131z" />
    <glyph glyph-name="two" unicode="2" horiz-adv-x="1429" 
d="M1321 158v-158h-1192q0 205 52 327q52 121 169 203t376 185t343 157t84 166q0 113 -98 187t-289 73q-360 0 -471 -268l-141 80q162 344 606 344q254 0 406 -116t151 -293q0 -177 -117 -273q-114 -93 -257 -142q-142 -49 -218 -79q-219 -80 -311 -171t-113 -222h1020z" />
    <glyph glyph-name="three" unicode="3" horiz-adv-x="1421" 
d="M1313 414q0 -186 -158 -310t-440 -124q-406 0 -627 208l90 136q172 -186 531 -187q217 0 329 79q112 80 111 194q0 114 -71 176t-181 63h-334v156h211q313 0 313 219q0 121 -105 198t-302 76q-346 0 -436 -243l-142 78q139 322 578 321q270 0 421 -122t150 -300
q0 -213 -207 -293q123 -33 196 -117t73 -208z" />
    <glyph glyph-name="four" unicode="4" horiz-adv-x="1495" 
d="M1020 469v743l-756 -743h756zM1020 0v317h-973v140l989 977h148v-965h266v-152h-266v-317h-164z" />
    <glyph glyph-name="five" unicode="5" horiz-adv-x="1443" 
d="M690 -20q-350 0 -577 208l92 136q172 -186 481 -187q231 0 356 88q125 89 125 233t-114 222q-115 78 -336 78t-377 -76l-125 74v678h1057v-156h-893v-428q190 59 350 59q262 1 432 -113t170 -332t-172 -351t-469 -133z" />
    <glyph glyph-name="six" unicode="6" horiz-adv-x="1497" 
d="M822 137q200 0 313 84t113 222t-116 213t-313 75q-274 0 -516 -156q37 -209 179 -323q140 -114 340 -115zM801 885q260 0 435 -110t175 -323q0 -212 -159 -342t-412 -130q-319 0 -515 198t-196 539q0 180 58 324q57 145 157 233q203 180 501 180q297 0 513 -209l-92 -135
q-160 188 -416 188t-405 -151q-148 -152 -152 -416q248 154 508 154z" />
    <glyph glyph-name="seven" unicode="7" horiz-adv-x="1392" 
d="M88 1434h1198v-123l-717 -1311h-186l698 1278h-993v156z" />
    <glyph glyph-name="eight" unicode="8" horiz-adv-x="1515" 
d="M1245 413q0 129 -128 205t-358 76q-231 0 -359 -76t-128 -206t130 -205q130 -76 357 -76q228 0 357 76t129 206zM352 1074q0 -108 106 -168t300 -60q195 0 300 60t105 168t-106 169t-299 61q-194 0 -300 -60q-106 -62 -106 -170zM1409 410q0 -197 -174 -314
q-174 -116 -476 -116t-476 116t-174 314q0 268 323 364q-244 86 -244 305q0 171 152 273t418 102t418 -102t151 -273q0 -219 -244 -305q158 -47 242 -139t84 -225z" />
    <glyph glyph-name="nine" unicode="9" horiz-adv-x="1497" 
d="M680 702q268 0 514 156q-35 211 -176 326q-141 114 -342 114t-314 -85q-112 -85 -112 -223t116 -213t314 -75zM659 1454q319 0 515 -198t196 -539q0 -240 -102 -411t-259 -249t-343 -77q-311 0 -527 208l92 136q163 -186 419 -186t404 151q148 152 152 416
q-252 -154 -504 -154t-427 99q-87 50 -138 138t-51 201q0 205 158 335t415 130z" />
    <glyph glyph-name="colon" unicode=":" 
 />
    <glyph glyph-name="semicolon" unicode=";" 
 />
    <glyph glyph-name="less" unicode="&#x3c;" 
 />
    <glyph glyph-name="equal" unicode="=" 
 />
    <glyph glyph-name="greater" unicode="&#x3e;" 
 />
    <glyph glyph-name="question" unicode="?" horiz-adv-x="1343" 
d="M768 100q0 -52 -36 -86t-88 -34t-88 34t-36 86q0 51 36 86t88 35t88 -35t36 -86zM1047 1063q1 104 -95 170q-96 65 -267 65t-287 -64t-167 -171l-139 80q74 139 226 225t378 86q224 0 369 -108t145 -279q0 -86 -46 -167t-96 -128t-144 -121l-277 -219l-137 82l309 244
q78 61 118 98t75 93t35 114z" />
    <glyph glyph-name="at" unicode="@" 
 />
    <glyph glyph-name="A" unicode="A" horiz-adv-x="1583" 
d="M446 494h689l-344 741zM1534 0h-170l-156 336h-833l-156 -336h-170v14l668 1420h147l670 -1420v-14z" />
    <glyph glyph-name="B" unicode="B" horiz-adv-x="1583" 
d="M381 158h678q113 0 181 66t69 176q0 108 -69 177t-181 68h-678v-487zM381 795h580q113 1 179 65t66 174t-68 176q-68 68 -182 68h-575v-483zM217 0v1434h746q183 0 295 -111t112 -279q0 -215 -182 -307q127 -31 206 -123t79 -248t-117 -260q-117 -106 -291 -106h-848z
" />
    <glyph glyph-name="C" unicode="C" horiz-adv-x="1624" 
d="M874 -20q-330 0 -536 210t-207 526q0 316 204 527t533 211q219 0 386 -100t247 -262l-139 -80q-60 131 -190 209t-300 77q-260 0 -418 -166t-159 -414q0 -249 162 -415t422 -166q172 0 303 77t190 208l139 -80q-80 -162 -248 -262t-389 -100z" />
    <glyph glyph-name="D" unicode="D" horiz-adv-x="1648" 
d="M770 158q254 0 419 158t165 401q0 245 -165 403t-419 158h-389v-1120h389zM770 1434q320 0 534 -206t214 -511t-214 -511t-534 -206h-553v1434h553z" />
    <glyph glyph-name="E" unicode="E" horiz-adv-x="1439" 
d="M381 158h948v-158h-1112v1434h1102v-156h-938v-481h604v-156h-604v-483z" />
    <glyph glyph-name="F" unicode="F" horiz-adv-x="1402" 
d="M1313 1278h-932v-522h635v-156h-635v-600h-164v1434h1096v-156z" />
    <glyph glyph-name="G" unicode="G" horiz-adv-x="1697" 
d="M932 754h614v-508q-252 -266 -622 -266t-582 210q-211 210 -211 524q0 312 208 526t546 214q221 0 390 -97t251 -265l-140 -80q-61 133 -190 210t-305 76q-270 0 -433 -166t-163 -417q0 -252 166 -415q167 -163 461 -163t473 191v276h-463v150z" />
    <glyph glyph-name="H" unicode="H" horiz-adv-x="1685" 
d="M1303 1434h163v-1434h-163v659h-922v-659h-164v1434h164v-619h922v619z" />
    <glyph glyph-name="I" unicode="I" horiz-adv-x="600" 
d="M217 1434h164v-1434h-164v1434z" />
    <glyph glyph-name="J" unicode="J" horiz-adv-x="1452" 
d="M686 -20q-438 0 -584 382l146 78q96 -303 438 -303q207 1 313 105t107 309v883h164v-883q0 -283 -160 -427t-424 -144z" />
    <glyph glyph-name="K" unicode="K" horiz-adv-x="1556" 
d="M1487 0h-182l-560 717l-364 -361v-356h-164v1434h164v-869l883 869h198v-11l-604 -596l629 -815v-12z" />
    <glyph glyph-name="L" unicode="L" horiz-adv-x="1382" 
d="M381 158h911v-158h-1075v1434h164v-1276z" />
    <glyph glyph-name="M" unicode="M" horiz-adv-x="1890" 
d="M1671 1434v-1434h-164v1153l-553 -739h-20l-553 739v-1153h-164v1434h148l579 -779l582 779h145z" />
    <glyph glyph-name="N" unicode="N" horiz-adv-x="1705" 
d="M1323 1434h164v-1434h-146l-960 1167v-1167h-164v1434h148l958 -1170v1170z" />
    <glyph glyph-name="O" unicode="O" horiz-adv-x="1771" 
d="M886 137q261 0 426 165t165 415t-165 416q-165 165 -426 165t-426 -166t-165 -415q0 -250 165 -415t426 -165zM1640 717q0 -309 -212 -523t-542 -214q-329 0 -542 213t-213 524t213 524t542 213q330 0 542 -214t212 -523z" />
    <glyph glyph-name="P" unicode="P" horiz-adv-x="1562" 
d="M975 690q135 0 224 82t89 211t-89 212t-224 83h-594v-588h594zM981 1434q199 0 335 -128t136 -323t-135 -321t-336 -127h-600v-535h-164v1434h764z" />
    <glyph glyph-name="Q" unicode="Q" horiz-adv-x="1771" 
d="M295 717q0 -250 165 -415t426 -165t426 165t165 415t-165 416q-165 165 -426 165t-426 -166t-165 -415zM1640 717q0 -209 -103 -383t-282 -266l338 -265l-135 -98l-383 295q-98 -20 -188 -20q-330 0 -543 213t-213 524t213 524t542 213q330 0 542 -214t212 -523z" />
    <glyph glyph-name="R" unicode="R" horiz-adv-x="1587" 
d="M381 1278v-547h577q135 0 223 75q87 75 87 199q0 125 -87 199t-223 74h-577zM1513 0h-176l-391 578h-565v-578h-164v1434h748q201 0 333 -120t134 -310q0 -150 -86 -258q-87 -107 -230 -148l397 -586v-12z" />
    <glyph glyph-name="S" unicode="S" horiz-adv-x="1488" 
d="M754 -20q-399 0 -641 210l90 136q195 -188 557 -189q213 0 334 78t120 211q0 102 -96 139t-292 63t-246 34q-49 8 -131 26t-127 43t-95 63q-92 71 -92 220q0 200 161 320q160 120 402 120t399 -89t222 -235l-139 -79q-43 113 -163 181q-121 68 -313 66q-192 0 -298 -76
t-107 -200q0 -86 66 -131q53 -39 163 -60t306 -45t284 -51q258 -78 258 -298q0 -221 -172 -339t-450 -118z" />
    <glyph glyph-name="T" unicode="T" horiz-adv-x="1439" 
d="M1370 1434v-156h-569v-1278h-164v1278h-567v156h1300z" />
    <glyph glyph-name="U" unicode="U" horiz-adv-x="1617" 
d="M809 -20q-265 0 -437 137q-90 71 -140 189t-50 274v854h164v-854q0 -219 124 -331t340 -112t339 112t123 331v854h164v-854q0 -156 -50 -275q-91 -215 -338 -292q-110 -33 -239 -33z" />
    <glyph glyph-name="V" unicode="V" horiz-adv-x="1548" 
d="M49 1434h170l555 -1233l555 1233h170v-15l-649 -1419h-154l-647 1419v15z" />
    <glyph glyph-name="W" unicode="W" horiz-adv-x="2166" 
d="M70 1434h166l374 -1198l408 1146h131l405 -1146l375 1198h168v-15l-461 -1419h-155l-398 1133l-399 -1133h-154l-460 1419v15z" />
    <glyph glyph-name="X" unicode="X" horiz-adv-x="1536" 
d="M1446 0h-178l-500 637l-500 -637h-178v14l584 744l-518 661v15h178l434 -553l434 553h178v-15l-518 -661l584 -744v-14z" />
    <glyph glyph-name="Y" unicode="Y" horiz-adv-x="1470" 
d="M1401 1434v-15l-584 -811v-608h-164v608l-583 811v15h178l487 -684l488 684h178z" />
    <glyph glyph-name="Z" unicode="Z" horiz-adv-x="1361" 
d="M1251 158v-158h-1140v113l897 1165h-873v156h1096v-119l-893 -1157h913z" />
    <glyph glyph-name="bracketleft" unicode="[" 
 />
    <glyph glyph-name="backslash" unicode="\" 
 />
    <glyph glyph-name="bracketright" unicode="]" 
 />
    <glyph glyph-name="asciicircum" unicode="^" 
 />
    <glyph glyph-name="underscore" unicode="_" 
 />
    <glyph glyph-name="a" unicode="a" horiz-adv-x="1341" 
d="M657 125q228 0 353 182v389q-127 184 -353 185q-178 -1 -283 -107q-106 -106 -106 -272t106 -272t283 -105zM1010 1004h155v-1004h-155v154q-132 -174 -368 -174t-384 152q-147 153 -147 370q0 218 147 370t384 152t368 -174v154z" />
    <glyph glyph-name="b" unicode="b" horiz-adv-x="1341" 
d="M686 125q178 0 283 105q104 106 104 272t-104 272t-283 107q-227 0 -354 -185v-389q125 -182 354 -182zM700 1024q238 0 384 -153t146 -369t-146 -370q-146 -152 -382 -152t-370 174v-154h-156v1434h156v-584q130 174 368 174z" />
    <glyph glyph-name="c" unicode="c" horiz-adv-x="1200" 
d="M653 -20q-246 0 -394 150t-148 373q0 225 146 373t392 148q158 0 277 -71t174 -187l-129 -74q-43 88 -127 138t-195 51q-176 -1 -278 -107q-103 -106 -103 -272t104 -272t281 -105q115 0 200 49t126 137l129 -73q-53 -118 -173 -188t-282 -70z" />
    <glyph glyph-name="d" unicode="d" horiz-adv-x="1341" 
d="M657 125q228 0 353 182v389q-127 184 -353 185q-178 -1 -283 -107q-106 -106 -106 -272t106 -272t283 -105zM1010 1434h155v-1434h-155v154q-132 -174 -368 -174t-384 152q-147 153 -147 370q0 218 147 370t384 152t368 -174v584z" />
    <glyph glyph-name="e" unicode="e" horiz-adv-x="1226" 
d="M624 883q-150 -1 -246 -89q-98 -88 -114 -233h711q-13 152 -107 237t-244 85zM676 121q181 0 328 131l67 -125q-175 -147 -417 -147t-393 147t-151 371t142 376q141 150 379 150t378 -166t113 -430h-856q23 -143 126 -225t284 -82z" />
    <glyph glyph-name="f" unicode="f" horiz-adv-x="811" 
d="M600 1333q-96 0 -149 -53t-54 -150v-126h389v-142h-389v-862h-155v862h-193v142h193v135q0 159 95 247t225 88t224 -51v-137q-90 47 -186 47z" />
    <glyph glyph-name="g" unicode="g" horiz-adv-x="1341" 
d="M657 125q228 0 353 182v389q-127 184 -353 185q-178 -1 -283 -107q-106 -106 -106 -272t106 -272t283 -105zM1010 1004h155v-951q0 -219 -142 -351t-393 -132t-429 145l67 129q150 -131 348 -131t296 89q97 89 98 251v101q-132 -174 -368 -174t-384 152
q-147 153 -147 370q0 218 147 370t384 152t368 -174v154z" />
    <glyph glyph-name="h" unicode="h" horiz-adv-x="1259" 
d="M711 1024q184 0 289 -109t106 -297v-618h-154v618q0 119 -73 191q-74 72 -199 72q-197 0 -348 -211v-670h-156v1434h156v-596q150 186 379 186z" />
    <glyph glyph-name="i" unicode="i" horiz-adv-x="507" 
d="M332 1004v-1004h-156v1004h156zM255 1210q-48 0 -82 33t-34 78t34 78t82 33t81 -32t33 -79t-33 -79t-81 -32z" />
    <glyph glyph-name="j" unicode="j" horiz-adv-x="530" 
d="M199 1004h153v-1067q0 -154 -68 -242t-225 -135l-77 131q116 37 166 96t51 158v1059zM275 1210q-49 0 -81 32t-32 79t33 79t81 32t80 -32q33 -32 33 -79t-33 -79t-81 -32z" />
    <glyph glyph-name="k" unicode="k" horiz-adv-x="1165" 
d="M1094 0h-170l-344 465l-248 -264v-201h-156v1434h156v-1022l563 592h184v-11l-397 -420l412 -563v-10z" />
    <glyph glyph-name="l" unicode="l" horiz-adv-x="507" 
d="M176 0v1475h156v-1475h-156z" />
    <glyph glyph-name="m" unicode="m" horiz-adv-x="1875" 
d="M1308 1024q194 0 304 -112q111 -112 110 -294v-618h-153v618q0 111 -66 187t-186 76q-180 0 -291 -160q8 -61 8 -98v-623h-153v623q0 106 -66 182t-184 76q-182 0 -299 -209v-672h-156v1004h156v-148q135 168 321 168q215 0 316 -160q145 160 339 160z" />
    <glyph glyph-name="n" unicode="n" horiz-adv-x="1259" 
d="M711 1024q184 0 289 -109t106 -297v-618h-154v618q0 119 -73 191q-74 72 -199 72q-197 0 -348 -211v-670h-156v1004h156v-166q150 186 379 186z" />
    <glyph glyph-name="o" unicode="o" horiz-adv-x="1300" 
d="M651 125q170 0 276 106q105 107 105 271t-105 272t-275 107q-170 0 -277 -108q-107 -107 -107 -271t106 -270t277 -107zM650 1024q240 0 390 -151t150 -371t-150 -372q-150 -150 -390 -150t-390 150t-149 372q-1 222 149 372t390 150z" />
    <glyph glyph-name="p" unicode="p" horiz-adv-x="1341" 
d="M686 125q178 0 283 105q104 106 104 272t-104 272t-283 107q-227 0 -354 -185v-389q125 -182 354 -182zM700 1024q238 0 384 -153t146 -369t-146 -370q-146 -152 -382 -152t-370 174v-564h-156v1414h156v-154q130 174 368 174z" />
    <glyph glyph-name="q" unicode="q" horiz-adv-x="1341" 
d="M657 125q228 0 353 182v389q-127 184 -353 185q-178 -1 -283 -107q-106 -106 -106 -272t106 -272t283 -105zM1010 1004h155v-1414h-155v564q-132 -174 -368 -174t-384 152q-147 153 -147 370q0 218 147 370t384 152t368 -174v154z" />
    <glyph glyph-name="r" unicode="r" horiz-adv-x="821" 
d="M332 0h-156v1004h156v-199q145 225 420 219v-154q-131 2 -246 -59t-174 -182v-629z" />
    <glyph glyph-name="s" unicode="s" horiz-adv-x="1130" 
d="M567 -20q-276 0 -465 141l68 129q150 -129 405 -129q147 0 225 44q77 44 77 120q0 77 -66 101t-216 42q-149 18 -211 32q-176 39 -226 121q-31 50 -31 124q0 143 119 231t302 88t294 -68t157 -176l-125 -63q-68 166 -319 166q-127 0 -199 -46t-72 -119t66 -100t197 -43
t184 -25q155 -26 219 -77q86 -66 84 -180q0 -147 -124 -230t-343 -83z" />
    <glyph glyph-name="t" unicode="t" horiz-adv-x="927" 
d="M821 862h-403v-573q0 -168 194 -168q104 0 195 49v-139q-96 -51 -227 -51t-225 76q-93 77 -93 223v583h-192v142h192v307h156v-307h403v-142z" />
    <glyph glyph-name="u" unicode="u" horiz-adv-x="1259" 
d="M928 1004h155v-1004h-155v166q-145 -186 -377 -186q-186 0 -292 109q-105 110 -105 298v617h155v-617q0 -121 73 -191t198 -71q199 0 348 209v670z" />
    <glyph glyph-name="v" unicode="v" horiz-adv-x="1167" 
d="M39 1004h164l381 -816l381 816h163v-9l-471 -995h-147l-471 995v9z" />
    <glyph glyph-name="w" unicode="w" horiz-adv-x="1597" 
d="M49 1004h154l252 -773l293 734h104l293 -734l250 773h153v-9l-331 -995h-130l-288 721l-289 -721h-129l-332 995v9z" />
    <glyph glyph-name="x" unicode="x" horiz-adv-x="1142" 
d="M70 0v10l411 508l-385 477v9h174l301 -371l301 371h175v-9l-385 -477l411 -508v-10h-174l-328 403l-327 -403h-174z" />
    <glyph glyph-name="y" unicode="y" horiz-adv-x="1163" 
d="M1124 1004v-9l-620 -1405h-170v9l196 413l-481 983v9h170l387 -824l348 824h170z" />
    <glyph glyph-name="z" unicode="z" horiz-adv-x="1101" 
d="M991 141v-141h-880v113l647 749h-627v142h844v-113l-647 -750h663z" />
    <glyph glyph-name="braceleft" unicode="{" 
 />
    <glyph glyph-name="bar" unicode="|" 
 />
    <glyph glyph-name="braceright" unicode="}" 
 />
    <glyph glyph-name="asciitilde" unicode="~" 
 />
    <glyph glyph-name="exclamdown" unicode="&#xa1;" 
 />
    <glyph glyph-name="cent" unicode="&#xa2;" 
 />
    <glyph glyph-name="sterling" unicode="&#xa3;" 
 />
    <glyph glyph-name="yen" unicode="&#xa5;" 
 />
    <glyph glyph-name="copyright" unicode="&#xa9;" 
 />
    <glyph glyph-name="guillemotleft" unicode="&#xab;" 
 />
    <glyph glyph-name="registered" unicode="&#xae;" 
 />
    <glyph glyph-name="degree" unicode="&#xb0;" 
 />
    <glyph glyph-name="plusminus" unicode="&#xb1;" 
 />
    <glyph glyph-name="periodcentered" unicode="&#xb7;" 
 />
    <glyph glyph-name="guillemotright" unicode="&#xbb;" 
 />
    <glyph glyph-name="questiondown" unicode="&#xbf;" 
 />
    <glyph glyph-name="Agrave" unicode="&#xc0;" 
 />
    <glyph glyph-name="Aacute" unicode="&#xc1;" 
 />
    <glyph glyph-name="Acircumflex" unicode="&#xc2;" 
 />
    <glyph glyph-name="Atilde" unicode="&#xc3;" 
 />
    <glyph glyph-name="Adieresis" unicode="&#xc4;" 
 />
    <glyph glyph-name="Aring" unicode="&#xc5;" 
 />
    <glyph glyph-name="AE" unicode="&#xc6;" 
 />
    <glyph glyph-name="Ccedilla" unicode="&#xc7;" 
 />
    <glyph glyph-name="Egrave" unicode="&#xc8;" 
 />
    <glyph glyph-name="Eacute" unicode="&#xc9;" 
 />
    <glyph glyph-name="Ecircumflex" unicode="&#xca;" 
 />
    <glyph glyph-name="Edieresis" unicode="&#xcb;" 
 />
    <glyph glyph-name="Igrave" unicode="&#xcc;" 
 />
    <glyph glyph-name="Iacute" unicode="&#xcd;" 
 />
    <glyph glyph-name="Icircumflex" unicode="&#xce;" 
 />
    <glyph glyph-name="Idieresis" unicode="&#xcf;" 
 />
    <glyph glyph-name="Eth" unicode="&#xd0;" 
 />
    <glyph glyph-name="Ntilde" unicode="&#xd1;" 
 />
    <glyph glyph-name="Ograve" unicode="&#xd2;" 
 />
    <glyph glyph-name="Oacute" unicode="&#xd3;" 
 />
    <glyph glyph-name="Ocircumflex" unicode="&#xd4;" 
 />
    <glyph glyph-name="Otilde" unicode="&#xd5;" 
 />
    <glyph glyph-name="Odieresis" unicode="&#xd6;" 
 />
    <glyph glyph-name="multiply" unicode="&#xd7;" 
 />
    <glyph glyph-name="Oslash" unicode="&#xd8;" 
 />
    <glyph glyph-name="Ugrave" unicode="&#xd9;" 
 />
    <glyph glyph-name="Uacute" unicode="&#xda;" 
 />
    <glyph glyph-name="Ucircumflex" unicode="&#xdb;" 
 />
    <glyph glyph-name="Udieresis" unicode="&#xdc;" 
 />
    <glyph glyph-name="Yacute" unicode="&#xdd;" 
 />
    <glyph glyph-name="Thorn" unicode="&#xde;" 
 />
    <glyph glyph-name="germandbls" unicode="&#xdf;" 
 />
    <glyph glyph-name="agrave" unicode="&#xe0;" 
 />
    <glyph glyph-name="aacute" unicode="&#xe1;" 
 />
    <glyph glyph-name="acircumflex" unicode="&#xe2;" 
 />
    <glyph glyph-name="atilde" unicode="&#xe3;" 
 />
    <glyph glyph-name="adieresis" unicode="&#xe4;" 
 />
    <glyph glyph-name="aring" unicode="&#xe5;" 
 />
    <glyph glyph-name="ae" unicode="&#xe6;" 
 />
    <glyph glyph-name="ccedilla" unicode="&#xe7;" 
 />
    <glyph glyph-name="egrave" unicode="&#xe8;" 
 />
    <glyph glyph-name="eacute" unicode="&#xe9;" 
 />
    <glyph glyph-name="ecircumflex" unicode="&#xea;" 
 />
    <glyph glyph-name="edieresis" unicode="&#xeb;" 
 />
    <glyph glyph-name="igrave" unicode="&#xec;" 
 />
    <glyph glyph-name="iacute" unicode="&#xed;" 
 />
    <glyph glyph-name="icircumflex" unicode="&#xee;" 
 />
    <glyph glyph-name="idieresis" unicode="&#xef;" 
 />
    <glyph glyph-name="eth" unicode="&#xf0;" 
 />
    <glyph glyph-name="ntilde" unicode="&#xf1;" 
 />
    <glyph glyph-name="ograve" unicode="&#xf2;" 
 />
    <glyph glyph-name="oacute" unicode="&#xf3;" 
 />
    <glyph glyph-name="ocircumflex" unicode="&#xf4;" 
 />
    <glyph glyph-name="otilde" unicode="&#xf5;" 
 />
    <glyph glyph-name="odieresis" unicode="&#xf6;" 
 />
    <glyph glyph-name="divide" unicode="&#xf7;" 
 />
    <glyph glyph-name="oslash" unicode="&#xf8;" 
 />
    <glyph glyph-name="ugrave" unicode="&#xf9;" 
 />
    <glyph glyph-name="uacute" unicode="&#xfa;" 
 />
    <glyph glyph-name="ucircumflex" unicode="&#xfb;" 
 />
    <glyph glyph-name="udieresis" unicode="&#xfc;" 
 />
    <glyph glyph-name="yacute" unicode="&#xfd;" 
 />
    <glyph glyph-name="thorn" unicode="&#xfe;" 
 />
    <glyph glyph-name="ydieresis" unicode="&#xff;" 
 />
    <glyph glyph-name="Amacron" unicode="&#x100;" 
 />
    <glyph glyph-name="amacron" unicode="&#x101;" 
 />
    <glyph glyph-name="Abreve" unicode="&#x102;" 
 />
    <glyph glyph-name="abreve" unicode="&#x103;" 
 />
    <glyph glyph-name="Aogonek" unicode="&#x104;" 
 />
    <glyph glyph-name="aogonek" unicode="&#x105;" 
 />
    <glyph glyph-name="Cacute" unicode="&#x106;" 
 />
    <glyph glyph-name="cacute" unicode="&#x107;" 
 />
    <glyph glyph-name="Cdotaccent" unicode="&#x10a;" 
 />
    <glyph glyph-name="cdotaccent" unicode="&#x10b;" 
 />
    <glyph glyph-name="Ccaron" unicode="&#x10c;" 
 />
    <glyph glyph-name="ccaron" unicode="&#x10d;" 
 />
    <glyph glyph-name="Dcaron" unicode="&#x10e;" 
 />
    <glyph glyph-name="dcaron" unicode="&#x10f;" 
 />
    <glyph glyph-name="Dcroat" unicode="&#x110;" 
 />
    <glyph glyph-name="dcroat" unicode="&#x111;" 
 />
    <glyph glyph-name="Emacron" unicode="&#x112;" 
 />
    <glyph glyph-name="emacron" unicode="&#x113;" 
 />
    <glyph glyph-name="Edotaccent" unicode="&#x116;" 
 />
    <glyph glyph-name="edotaccent" unicode="&#x117;" 
 />
    <glyph glyph-name="Eogonek" unicode="&#x118;" 
 />
    <glyph glyph-name="eogonek" unicode="&#x119;" 
 />
    <glyph glyph-name="Ecaron" unicode="&#x11a;" 
 />
    <glyph glyph-name="ecaron" unicode="&#x11b;" 
 />
    <glyph glyph-name="Gbreve" unicode="&#x11e;" 
 />
    <glyph glyph-name="gbreve" unicode="&#x11f;" 
 />
    <glyph glyph-name="Gdotaccent" unicode="&#x120;" 
 />
    <glyph glyph-name="gdotaccent" unicode="&#x121;" 
 />
    <glyph glyph-name="Gcommaaccent" unicode="&#x122;" 
 />
    <glyph glyph-name="gcommaaccent" unicode="&#x123;" 
 />
    <glyph glyph-name="Hbar" unicode="&#x126;" 
 />
    <glyph glyph-name="hbar" unicode="&#x127;" 
 />
    <glyph glyph-name="Imacron" unicode="&#x12a;" 
 />
    <glyph glyph-name="imacron" unicode="&#x12b;" 
 />
    <glyph glyph-name="Iogonek" unicode="&#x12e;" 
 />
    <glyph glyph-name="iogonek" unicode="&#x12f;" 
 />
    <glyph glyph-name="Idotaccent" unicode="&#x130;" 
 />
    <glyph glyph-name="dotlessi" unicode="&#x131;" 
 />
    <glyph glyph-name="Kcommaaccent" unicode="&#x136;" 
 />
    <glyph glyph-name="kcommaaccent" unicode="&#x137;" 
 />
    <glyph glyph-name="Lacute" unicode="&#x139;" 
 />
    <glyph glyph-name="lacute" unicode="&#x13a;" 
 />
    <glyph glyph-name="Lcommaaccent" unicode="&#x13b;" 
 />
    <glyph glyph-name="lcommaaccent" unicode="&#x13c;" 
 />
    <glyph glyph-name="Lcaron" unicode="&#x13d;" 
 />
    <glyph glyph-name="lcaron" unicode="&#x13e;" 
 />
    <glyph glyph-name="Lslash" unicode="&#x141;" 
 />
    <glyph glyph-name="lslash" unicode="&#x142;" 
 />
    <glyph glyph-name="Nacute" unicode="&#x143;" 
 />
    <glyph glyph-name="nacute" unicode="&#x144;" 
 />
    <glyph glyph-name="Ncommaaccent" unicode="&#x145;" 
 />
    <glyph glyph-name="ncommaaccent" unicode="&#x146;" 
 />
    <glyph glyph-name="Ncaron" unicode="&#x147;" 
 />
    <glyph glyph-name="ncaron" unicode="&#x148;" 
 />
    <glyph glyph-name="Eng" unicode="&#x14a;" 
 />
    <glyph glyph-name="eng" unicode="&#x14b;" 
 />
    <glyph glyph-name="Omacron" unicode="&#x14c;" 
 />
    <glyph glyph-name="omacron" unicode="&#x14d;" 
 />
    <glyph glyph-name="Ohungarumlaut" unicode="&#x150;" 
 />
    <glyph glyph-name="ohungarumlaut" unicode="&#x151;" 
 />
    <glyph glyph-name="OE" unicode="&#x152;" 
 />
    <glyph glyph-name="oe" unicode="&#x153;" 
 />
    <glyph glyph-name="Racute" unicode="&#x154;" 
 />
    <glyph glyph-name="racute" unicode="&#x155;" 
 />
    <glyph glyph-name="Rcommaaccent" unicode="&#x156;" 
 />
    <glyph glyph-name="rcommaaccent" unicode="&#x157;" 
 />
    <glyph glyph-name="Rcaron" unicode="&#x158;" 
 />
    <glyph glyph-name="rcaron" unicode="&#x159;" 
 />
    <glyph glyph-name="Sacute" unicode="&#x15a;" 
 />
    <glyph glyph-name="sacute" unicode="&#x15b;" 
 />
    <glyph glyph-name="Scedilla" unicode="&#x15e;" 
 />
    <glyph glyph-name="scedilla" unicode="&#x15f;" 
 />
    <glyph glyph-name="Scaron" unicode="&#x160;" 
 />
    <glyph glyph-name="scaron" unicode="&#x161;" 
 />
    <glyph glyph-name="uni0162" unicode="&#x162;" 
 />
    <glyph glyph-name="uni0163" unicode="&#x163;" 
 />
    <glyph glyph-name="Tcaron" unicode="&#x164;" 
 />
    <glyph glyph-name="tcaron" unicode="&#x165;" 
 />
    <glyph glyph-name="Tbar" unicode="&#x166;" 
 />
    <glyph glyph-name="tbar" unicode="&#x167;" 
 />
    <glyph glyph-name="Umacron" unicode="&#x16a;" 
 />
    <glyph glyph-name="umacron" unicode="&#x16b;" 
 />
    <glyph glyph-name="Uring" unicode="&#x16e;" 
 />
    <glyph glyph-name="uring" unicode="&#x16f;" 
 />
    <glyph glyph-name="Uhungarumlaut" unicode="&#x170;" 
 />
    <glyph glyph-name="uhungarumlaut" unicode="&#x171;" 
 />
    <glyph glyph-name="Uogonek" unicode="&#x172;" 
 />
    <glyph glyph-name="uogonek" unicode="&#x173;" 
 />
    <glyph glyph-name="Wcircumflex" unicode="&#x174;" 
 />
    <glyph glyph-name="wcircumflex" unicode="&#x175;" 
 />
    <glyph glyph-name="Ycircumflex" unicode="&#x176;" 
 />
    <glyph glyph-name="ycircumflex" unicode="&#x177;" 
 />
    <glyph glyph-name="Ydieresis" unicode="&#x178;" 
 />
    <glyph glyph-name="Zacute" unicode="&#x179;" 
 />
    <glyph glyph-name="zacute" unicode="&#x17a;" 
 />
    <glyph glyph-name="Zdotaccent" unicode="&#x17b;" 
 />
    <glyph glyph-name="zdotaccent" unicode="&#x17c;" 
 />
    <glyph glyph-name="Zcaron" unicode="&#x17d;" 
 />
    <glyph glyph-name="zcaron" unicode="&#x17e;" 
 />
    <glyph glyph-name="Scommaaccent" unicode="&#x218;" 
 />
    <glyph glyph-name="scommaaccent" unicode="&#x219;" 
 />
    <glyph glyph-name="uni021A" unicode="&#x21a;" 
 />
    <glyph glyph-name="uni021B" unicode="&#x21b;" 
 />
    <glyph glyph-name="gravecomb" unicode="&#x300;" horiz-adv-x="0" 
 />
    <glyph glyph-name="acutecomb" unicode="&#x301;" horiz-adv-x="0" 
 />
    <glyph glyph-name="uni0302" unicode="&#x302;" horiz-adv-x="0" 
 />
    <glyph glyph-name="tildecomb" unicode="&#x303;" horiz-adv-x="0" 
 />
    <glyph glyph-name="uni0304" unicode="&#x304;" horiz-adv-x="0" 
 />
    <glyph glyph-name="uni0306" unicode="&#x306;" horiz-adv-x="0" 
 />
    <glyph glyph-name="uni0307" unicode="&#x307;" horiz-adv-x="0" 
 />
    <glyph glyph-name="uni0308" unicode="&#x308;" horiz-adv-x="0" 
 />
    <glyph glyph-name="uni030A" unicode="&#x30a;" horiz-adv-x="0" 
 />
    <glyph glyph-name="uni030B" unicode="&#x30b;" horiz-adv-x="0" 
 />
    <glyph glyph-name="uni030C" unicode="&#x30c;" horiz-adv-x="0" 
 />
    <glyph glyph-name="uni0312" unicode="&#x312;" horiz-adv-x="0" 
 />
    <glyph glyph-name="uni0326" unicode="&#x326;" horiz-adv-x="0" 
 />
    <glyph glyph-name="uni0327" unicode="&#x327;" horiz-adv-x="0" 
 />
    <glyph glyph-name="uni0328" unicode="&#x328;" horiz-adv-x="0" 
 />
    <glyph glyph-name="uni0335" unicode="&#x335;" horiz-adv-x="0" 
 />
    <glyph glyph-name="uni0336" unicode="&#x336;" horiz-adv-x="0" 
 />
    <glyph glyph-name="uni0337" unicode="&#x337;" horiz-adv-x="0" 
 />
    <glyph glyph-name="uni0338" unicode="&#x338;" horiz-adv-x="0" 
 />
    <glyph glyph-name="Wgrave" unicode="&#x1e80;" 
 />
    <glyph glyph-name="wgrave" unicode="&#x1e81;" 
 />
    <glyph glyph-name="Wacute" unicode="&#x1e82;" 
 />
    <glyph glyph-name="wacute" unicode="&#x1e83;" 
 />
    <glyph glyph-name="Wdieresis" unicode="&#x1e84;" 
 />
    <glyph glyph-name="wdieresis" unicode="&#x1e85;" 
 />
    <glyph glyph-name="Ygrave" unicode="&#x1ef2;" 
 />
    <glyph glyph-name="ygrave" unicode="&#x1ef3;" 
 />
    <glyph glyph-name="endash" unicode="&#x2013;" 
 />
    <glyph glyph-name="emdash" unicode="&#x2014;" 
 />
    <glyph glyph-name="quoteleft" unicode="&#x2018;" 
 />
    <glyph glyph-name="quoteright" unicode="&#x2019;" 
 />
    <glyph glyph-name="quotesinglbase" unicode="&#x201a;" 
 />
    <glyph glyph-name="quotedblleft" unicode="&#x201c;" 
 />
    <glyph glyph-name="quotedblright" unicode="&#x201d;" 
 />
    <glyph glyph-name="quotedblbase" unicode="&#x201e;" 
 />
    <glyph glyph-name="bullet" unicode="&#x2022;" 
 />
    <glyph glyph-name="ellipsis" unicode="&#x2026;" 
 />
    <glyph glyph-name="guilsinglleft" unicode="&#x2039;" 
 />
    <glyph glyph-name="guilsinglright" unicode="&#x203a;" 
 />
    <glyph glyph-name="Euro" unicode="&#x20ac;" 
 />
    <glyph glyph-name="uni2116" unicode="&#x2116;" 
 />
    <glyph glyph-name="trademark" unicode="&#x2122;" 
 />
    <glyph glyph-name="minus" unicode="&#x2212;" 
 />
    <glyph glyph-name="approxequal" unicode="&#x2248;" 
 />
    <glyph glyph-name="notequal" unicode="&#x2260;" 
 />
    <glyph glyph-name="lessequal" unicode="&#x2264;" 
 />
    <glyph glyph-name="greaterequal" unicode="&#x2265;" 
 />
    <glyph glyph-name="i.loclTRK" 
 />
    <glyph glyph-name="a.ss01" horiz-adv-x="1202" 
d="M502 121q244 0 391 166v182l-334 -23q-149 -10 -225 -47t-76 -125q0 -153 244 -153zM622 1024q202 0 314 -105q113 -105 113 -284v-635h-156v152q-152 -172 -414 -172q-174 0 -276 78t-103 223q0 174 147 240q117 53 304 67l342 18v29q0 248 -289 248q-262 0 -336 -174
l-125 61q47 114 162 184t317 70z" />
    <glyph glyph-name="aacute.ss01" 
 />
    <glyph glyph-name="abreve.ss01" 
 />
    <glyph glyph-name="acircumflex.ss01" 
 />
    <glyph glyph-name="adieresis.ss01" 
 />
    <glyph glyph-name="agrave.ss01" 
 />
    <glyph glyph-name="amacron.ss01" 
 />
    <glyph glyph-name="aogonek.ss01" 
 />
    <glyph glyph-name="aring.ss01" 
 />
    <glyph glyph-name="atilde.ss01" 
 />
    <glyph glyph-name="ae.ss01" 
 />
    <glyph glyph-name="f_f_j" 
 />
    <glyph glyph-name="f_i" 
 />
    <glyph glyph-name="f_j" 
 />
    <glyph glyph-name="a.sc" horiz-adv-x="1163" 
d="M358 344h445l-221 477zM1124 0h-161l-97 207h-571l-96 -207h-160v10l469 994h147l469 -994v-10z" />
    <glyph glyph-name="aacute.sc" 
 />
    <glyph glyph-name="abreve.sc" 
 />
    <glyph glyph-name="acircumflex.sc" 
 />
    <glyph glyph-name="adieresis.sc" 
 />
    <glyph glyph-name="agrave.sc" 
 />
    <glyph glyph-name="amacron.sc" 
 />
    <glyph glyph-name="aogonek.sc" 
 />
    <glyph glyph-name="aring.sc" 
 />
    <glyph glyph-name="atilde.sc" 
 />
    <glyph glyph-name="ae.sc" 
 />
    <glyph glyph-name="b.sc" horiz-adv-x="1155" 
d="M731 133q82 0 131 41t49 112q0 70 -49 112t-131 42h-399v-307h399zM668 870h-336v-303h342q82 0 127 40t45 112q0 71 -48 111t-130 40zM1069 254q0 -108 -82 -180q-82 -74 -203 -74h-608v1004h543q127 0 206 -77t79 -194q-1 -151 -138 -219q90 -20 146 -86t57 -174z" />
    <glyph glyph-name="c.sc" horiz-adv-x="1185" 
d="M639 -20q-236 0 -382 150t-146 373q0 221 145 371t381 150q161 0 279 -70t176 -188l-131 -74q-41 88 -126 138t-198 51q-166 -1 -267 -107q-102 -106 -102 -272t102 -272t269 -105q113 0 198 49t126 137l131 -73q-55 -118 -175 -188t-280 -70z" />
    <glyph glyph-name="cacute.sc" 
 />
    <glyph glyph-name="ccaron.sc" 
 />
    <glyph glyph-name="ccedilla.sc" 
 />
    <glyph glyph-name="cdotaccent.sc" 
 />
    <glyph glyph-name="d.sc" horiz-adv-x="1212" 
d="M582 141q158 1 261 103t103 258t-103 258t-261 102h-250v-721h250zM582 1004q222 0 372 -144t150 -358t-150 -358t-372 -144h-406v1004h406z" />
    <glyph glyph-name="eth.sc" 
 />
    <glyph glyph-name="dcaron.sc" 
 />
    <glyph glyph-name="dcroat.sc" 
 />
    <glyph glyph-name="e.sc" horiz-adv-x="1054" 
d="M332 141h637v-141h-793v1004h778v-142h-622v-287h416v-141h-416v-293z" />
    <glyph glyph-name="eacute.sc" 
 />
    <glyph glyph-name="ecaron.sc" 
 />
    <glyph glyph-name="ecircumflex.sc" 
 />
    <glyph glyph-name="edieresis.sc" 
 />
    <glyph glyph-name="edotaccent.sc" 
 />
    <glyph glyph-name="egrave.sc" 
 />
    <glyph glyph-name="emacron.sc" 
 />
    <glyph glyph-name="eogonek.sc" 
 />
    <glyph glyph-name="f.sc" horiz-adv-x="1056" 
d="M973 858h-641v-326h450v-143h-450v-389h-156v1004h797v-146z" />
    <glyph glyph-name="g.sc" horiz-adv-x="1230" 
d="M664 539h438v-392q-164 -167 -429 -167t-414 149q-148 150 -148 371q0 220 146 372t384 152q155 0 273 -69t173 -187l-120 -68q-41 86 -125 134t-197 49q-170 -1 -273 -107q-104 -106 -104 -277t106 -275t290 -105q182 0 297 100v180h-297v140z" />
    <glyph glyph-name="gbreve.sc" 
 />
    <glyph glyph-name="gcommaaccent.sc" 
 />
    <glyph glyph-name="gdotaccent.sc" 
 />
    <glyph glyph-name="h.sc" horiz-adv-x="1280" 
d="M948 1004h156v-1004h-156v446h-616v-446h-156v1004h156v-416h616v416z" />
    <glyph glyph-name="hbar.sc" 
 />
    <glyph glyph-name="i.sc" horiz-adv-x="507" 
d="M176 1004h156v-1004h-156v1004z" />
    <glyph glyph-name="iacute.sc" 
 />
    <glyph glyph-name="icircumflex.sc" 
 />
    <glyph glyph-name="idieresis.sc" 
 />
    <glyph glyph-name="i.sc.loclTRK" 
 />
    <glyph glyph-name="igrave.sc" 
 />
    <glyph glyph-name="imacron.sc" 
 />
    <glyph glyph-name="iogonek.sc" 
 />
    <glyph glyph-name="j.sc" horiz-adv-x="1103" 
d="M512 -20q-338 0 -432 266l131 71q57 -193 295 -192q289 0 289 262v617h155v-621q0 -199 -112 -301t-326 -102z" />
    <glyph glyph-name="k.sc" horiz-adv-x="1161" 
d="M1094 0h-170l-344 465l-248 -264v-201h-156v1004h156v-592l563 592h184v-11l-397 -420l412 -563v-10z" />
    <glyph glyph-name="kcommaaccent.sc" 
 />
    <glyph glyph-name="l.sc" horiz-adv-x="1019" 
d="M332 141h614v-141h-770v1004h156v-863z" />
    <glyph glyph-name="lacute.sc" 
 />
    <glyph glyph-name="lcaron.sc" 
 />
    <glyph glyph-name="lcommaaccent.sc" 
 />
    <glyph glyph-name="lslash.sc" 
 />
    <glyph glyph-name="m.sc" horiz-adv-x="1388" 
d="M1210 1004v-1004h-153v733l-357 -475h-12l-356 475v-733h-156v1004h129l389 -519l389 519h127z" />
    <glyph glyph-name="n.sc" horiz-adv-x="1257" 
d="M926 1004h155v-1004h-135l-614 750v-750h-156v1004h135l615 -750v750z" />
    <glyph glyph-name="nacute.sc" 
 />
    <glyph glyph-name="ncaron.sc" 
 />
    <glyph glyph-name="ncommaaccent.sc" 
 />
    <glyph glyph-name="eng.sc" 
 />
    <glyph glyph-name="ntilde.sc" 
 />
    <glyph glyph-name="o.sc" horiz-adv-x="1300" 
d="M651 125q170 0 276 106q105 107 105 271t-105 272t-275 107q-170 0 -277 -108q-107 -107 -107 -271t106 -270t277 -107zM650 1024q240 0 390 -151t150 -371t-150 -372q-150 -150 -390 -150t-390 150t-149 372q-1 222 149 372t390 150z" />
    <glyph glyph-name="oacute.sc" 
 />
    <glyph glyph-name="ocircumflex.sc" 
 />
    <glyph glyph-name="odieresis.sc" 
 />
    <glyph glyph-name="ograve.sc" 
 />
    <glyph glyph-name="ohungarumlaut.sc" 
 />
    <glyph glyph-name="omacron.sc" 
 />
    <glyph glyph-name="oslash.sc" 
 />
    <glyph glyph-name="otilde.sc" 
 />
    <glyph glyph-name="oe.sc" 
 />
    <glyph glyph-name="p.sc" horiz-adv-x="1165" 
d="M700 496q96 0 154 48q57 48 57 135t-57 135t-154 48h-368v-366h368zM711 1004q158 0 258 -90t100 -235t-100 -235t-258 -90h-379v-354h-156v1004h535z" />
    <glyph glyph-name="thorn.sc" 
 />
    <glyph glyph-name="q.sc" horiz-adv-x="1300" 
d="M268 502q0 -164 106 -270t277 -107q170 0 276 106q105 107 105 271t-105 272t-275 107q-170 1 -278 -107q-106 -108 -106 -272zM1190 502q0 -141 -66 -260t-182 -189l217 -168l-123 -88l-254 197q-57 -14 -131 -14q-241 0 -391 150t-149 372q-1 222 149 372t390 150
t390 -150t150 -372z" />
    <glyph glyph-name="r.sc" horiz-adv-x="1208" 
d="M332 862v-342h368q94 0 149 43q54 43 54 127t-54 128t-149 44h-368zM1118 0h-168l-250 379h-368v-379h-156v1004h545q150 0 245 -86t95 -228q-1 -104 -57 -181t-150 -110l264 -389v-10z" />
    <glyph glyph-name="racute.sc" 
 />
    <glyph glyph-name="rcaron.sc" 
 />
    <glyph glyph-name="rcommaaccent.sc" 
 />
    <glyph glyph-name="s.sc" horiz-adv-x="1130" 
d="M567 -20q-276 0 -465 141l68 129q150 -129 405 -129q147 0 225 44q77 44 77 120q0 77 -66 101t-216 42q-149 18 -211 32q-176 39 -226 121q-31 50 -31 124q0 143 119 231t302 88t294 -68t157 -176l-125 -63q-68 166 -319 166q-127 0 -199 -46t-72 -119t66 -100t197 -43
t184 -25q155 -26 219 -77q86 -66 84 -180q0 -147 -124 -230t-343 -83z" />
    <glyph glyph-name="sacute.sc" 
 />
    <glyph glyph-name="scaron.sc" 
 />
    <glyph glyph-name="scedilla.sc" 
 />
    <glyph glyph-name="scommaaccent.sc" 
 />
    <glyph glyph-name="t.sc" horiz-adv-x="1034" 
d="M969 1004v-142h-375v-862h-154v862h-372v142h901z" />
    <glyph glyph-name="tbar.sc" 
 />
    <glyph glyph-name="tcaron.sc" 
 />
    <glyph glyph-name="uni0163.sc" 
 />
    <glyph glyph-name="uni021B.sc" 
 />
    <glyph glyph-name="u.sc" horiz-adv-x="1234" 
d="M616 -20q-214 0 -338 106t-124 313v605h155v-605q0 -133 79 -203q80 -70 230 -71q150 0 229 71t79 203v605h155v-605q0 -207 -125 -313t-340 -106z" />
    <glyph glyph-name="uacute.sc" 
 />
    <glyph glyph-name="ucircumflex.sc" 
 />
    <glyph glyph-name="udieresis.sc" 
 />
    <glyph glyph-name="ugrave.sc" 
 />
    <glyph glyph-name="uhungarumlaut.sc" 
 />
    <glyph glyph-name="umacron.sc" 
 />
    <glyph glyph-name="uogonek.sc" 
 />
    <glyph glyph-name="uring.sc" 
 />
    <glyph glyph-name="v.sc" horiz-adv-x="1167" 
d="M39 1004h164l381 -816l381 816h163v-9l-471 -995h-147l-471 995v9z" />
    <glyph glyph-name="w.sc" horiz-adv-x="1597" 
d="M49 1004h154l252 -773l293 734h104l293 -734l250 773h153v-9l-331 -995h-130l-288 721l-289 -721h-129l-332 995v9z" />
    <glyph glyph-name="wacute.sc" 
 />
    <glyph glyph-name="wcircumflex.sc" 
 />
    <glyph glyph-name="wdieresis.sc" 
 />
    <glyph glyph-name="wgrave.sc" 
 />
    <glyph glyph-name="x.sc" horiz-adv-x="1142" 
d="M70 0v10l411 508l-385 477v9h174l301 -371l301 371h175v-9l-385 -477l411 -508v-10h-174l-328 403l-327 -403h-174z" />
    <glyph glyph-name="y.sc" horiz-adv-x="1087" 
d="M1032 1004v-9l-409 -604v-391h-156v391l-410 604v9h170l318 -480l317 480h170z" />
    <glyph glyph-name="yacute.sc" 
 />
    <glyph glyph-name="ycircumflex.sc" 
 />
    <glyph glyph-name="ydieresis.sc" 
 />
    <glyph glyph-name="ygrave.sc" 
 />
    <glyph glyph-name="z.sc" horiz-adv-x="1101" 
d="M993 141v-141h-882v113l649 749h-629v142h846v-113l-649 -750h665z" />
    <glyph glyph-name="zacute.sc" 
 />
    <glyph glyph-name="zcaron.sc" 
 />
    <glyph glyph-name="zdotaccent.sc" 
 />
    <glyph glyph-name="braceleft.case" 
 />
    <glyph glyph-name="braceright.case" 
 />
    <glyph glyph-name="bracketleft.case" 
 />
    <glyph glyph-name="bracketright.case" 
 />
    <glyph glyph-name="parenleft.case" 
 />
    <glyph glyph-name="parenright.case" 
 />
    <glyph glyph-name="emdash.case" 
 />
    <glyph glyph-name="endash.case" 
 />
    <glyph glyph-name="hyphen.case" 
 />
    <glyph glyph-name="guillemotleft.case" 
 />
    <glyph glyph-name="guillemotright.case" 
 />
    <glyph glyph-name="guilsinglleft.case" 
 />
    <glyph glyph-name="guilsinglright.case" 
 />
    <glyph glyph-name="bar.case" 
 />
    <glyph glyph-name="at.case" 
 />
    <glyph glyph-name="uni0308.case" horiz-adv-x="0" 
 />
    <glyph glyph-name="uni0307.case" horiz-adv-x="0" 
 />
    <glyph glyph-name="gravecomb.case" horiz-adv-x="0" 
 />
    <glyph glyph-name="acutecomb.case" horiz-adv-x="0" 
 />
    <glyph glyph-name="uni030B.case" horiz-adv-x="0" 
 />
    <glyph glyph-name="uni0302.case" horiz-adv-x="0" 
 />
    <glyph glyph-name="uni030C.case" horiz-adv-x="0" 
 />
    <glyph glyph-name="uni0306.case" horiz-adv-x="0" 
 />
    <glyph glyph-name="uni030A.case" horiz-adv-x="0" 
 />
    <glyph glyph-name="tildecomb.case" horiz-adv-x="0" 
 />
    <glyph glyph-name="uni0304.case" horiz-adv-x="0" 
 />
    <glyph glyph-name="uni0326.case" horiz-adv-x="0" 
 />
    <glyph glyph-name="uni0327.case" horiz-adv-x="0" 
 />
    <glyph glyph-name="uni0328.case" horiz-adv-x="0" 
 />
    <glyph glyph-name="uni0335.case" horiz-adv-x="0" 
 />
    <glyph glyph-name="uni0336.case" horiz-adv-x="0" 
 />
    <glyph glyph-name="uni0337.case" horiz-adv-x="0" 
 />
    <glyph glyph-name="uni0338.case" horiz-adv-x="0" 
 />
    </font>
</defs>
</svg>
