<?xml version="1.0" standalone="no"?>
<!DOCTYPE svg PUBLIC "-//W3C//DTD SVG 1.1//EN" "http://www.w3.org/Graphics/SVG/1.1/DTD/svg11.dtd" >
<svg xmlns="http://www.w3.org/2000/svg">
<metadata>
Created by FontPrep 20130207 at Wed Mar 30 14:37:33 2016
 By Jeff Ginsburg
Copyright (c) 2016 by Radomir Tinkov. All rights reserved.
</metadata>
<defs>
<font id="8e3f99b672fc28992bd3b2ec4de18459" horiz-adv-x='1024' >
  <font-face 
    font-family="RidleyGroteskDemo-Italic"
    font-weight="400"
    font-style="italic"
    font-stretch="normal"
    units-per-em="2048"
    panose-1="0 0 5 0 0 0 0 0 0 0"
    ascent="1638"
    descent="-410"
    x-height="1004"
    cap-height="1434"
    bbox="-160 -442 2261 1638"
    underline-thickness="102"
    underline-position="-102"
    slope="-10"
    unicode-range="U+0020-2265"
  />
<missing-glyph horiz-adv-x="1024" 
d="M682 -37h-340v-67h143l-143 -97v-67h340v67h-209l143 97h66v67zM614 174v-96h-204v96h204zM682 242h-340v-232h340v232zM682 596h-205v-115h70v47h67v-96h-204v164h-68v-231h340v231zM682 846h-68v-135h-272v-70h340v205zM682 969h-340v-68h135v-76h-135v-67h205v143h135
v68zM477 1167v-73h-67v73h67zM547 1237h-205v-213h340v70h-135v143zM682 1501h-338v-67h133v-76h-135v-68h340v68h-135v76h135v67zM840 1638v-2048h-650v2048h650z" />
    <glyph glyph-name="f_f" unicode="ff" 
 />
    <glyph glyph-name="f_f_i" unicode="ffi" 
 />
    <glyph glyph-name=".notdef" horiz-adv-x="1024" 
d="M682 -37h-340v-67h143l-143 -97v-67h340v67h-209l143 97h66v67zM614 174v-96h-204v96h204zM682 242h-340v-232h340v232zM682 596h-205v-115h70v47h67v-96h-204v164h-68v-231h340v231zM682 846h-68v-135h-272v-70h340v205zM682 969h-340v-68h135v-76h-135v-67h205v143h135
v68zM477 1167v-73h-67v73h67zM547 1237h-205v-213h340v70h-135v143zM682 1501h-338v-67h133v-76h-135v-68h340v68h-135v76h135v67zM840 1638v-2048h-650v2048h650z" />
    <glyph glyph-name=".null" horiz-adv-x="0" 
 />
    <glyph glyph-name="nonmarkingreturn" horiz-adv-x="681" 
 />
    <glyph glyph-name="space" unicode=" " 
 />
    <glyph glyph-name="exclam" unicode="!" horiz-adv-x="598" 
d="M381 1434h164l-53 -308l-154 -675h-98l88 675z" />
    <glyph glyph-name="quotedbl" unicode="&#x22;" 
 />
    <glyph glyph-name="numbersign" unicode="#" 
 />
    <glyph glyph-name="dollar" unicode="$" 
 />
    <glyph glyph-name="percent" unicode="%" 
 />
    <glyph glyph-name="ampersand" unicode="&#x26;" 
 />
    <glyph glyph-name="quotesingle" unicode="'" horiz-adv-x="378" 
d="M272 1434h164l-41 -236l-88 -311h-98l22 311z" />
    <glyph glyph-name="parenleft" unicode="(" 
 />
    <glyph glyph-name="parenright" unicode=")" 
 />
    <glyph glyph-name="asterisk" unicode="*" 
 />
    <glyph glyph-name="plus" unicode="+" 
 />
    <glyph glyph-name="comma" unicode="," horiz-adv-x="534" 
d="M208 221q60 0 96 -62q36 -61 21 -157t-95 -191t-214 -161l-41 71q180 106 213 267q-63 -6 -98 32q-36 38 -26 88t47 82t97 31z" />
    <glyph glyph-name="hyphen" unicode="-" 
 />
    <glyph glyph-name="period" unicode="." horiz-adv-x="495" 
d="M164 -20q-53 0 -86 38t-23 90q10 50 47 82t89 31q52 0 85 -39t24 -89q-9 -49 -46 -81t-90 -32z" />
    <glyph glyph-name="slash" unicode="/" 
 />
    <glyph glyph-name="zero" unicode="0" horiz-adv-x="1695" 
d="M774 137q252 0 446 165t236 410q42 246 -83 416q-124 170 -377 170q-252 0 -446 -164t-236 -411q-42 -246 83 -416t377 -170zM768 -20q-322 0 -495 220t-119 526t292 517q240 211 558 211t492 -220q173 -220 122 -525t-289 -517q-239 -212 -561 -212z" />
    <glyph glyph-name="one" unicode="1" horiz-adv-x="948" 
d="M762 1434h133l-252 -1434h-164l217 1245l-473 -166l-26 150l563 205l2 -2v2z" />
    <glyph glyph-name="two" unicode="2" horiz-adv-x="1429" 
d="M915 1454q247 0 387 -121t105 -315q-17 -92 -83 -181q-41 -54 -132 -109t-177 -85q-85 -30 -164 -58t-110 -38q-237 -82 -347 -172t-152 -217h1018l-27 -158h-1192q51 303 187 441q136 139 477 261t415 164q106 66 126 176t-62 184q-82 73 -266 72q-371 0 -529 -272
l-129 88q219 340 655 340z" />
    <glyph glyph-name="three" unicode="3" horiz-adv-x="1421" 
d="M625 137q231 0 361 79q130 80 148 192t-41 177q-60 65 -178 64h-325l26 156h207q322 0 357 221q18 123 -71 198t-284 74q-348 0 -483 -249l-129 90q190 315 616 315q269 0 407 -123t107 -309q-33 -209 -251 -287q113 -35 169 -121t35 -211q-30 -188 -204 -306t-467 -117
q-389 0 -592 213l108 120q156 -176 484 -176z" />
    <glyph glyph-name="four" unicode="4" horiz-adv-x="1495" 
d="M272 469h740l131 733zM932 0l55 317h-973l23 140l1161 977h150l-172 -965h266l-25 -152h-266l-55 -317h-164z" />
    <glyph glyph-name="five" unicode="5" horiz-adv-x="1443" 
d="M616 -20q-352 0 -559 213l107 124q154 -180 450 -180q236 0 379 88q143 87 168 231t-75 223t-318 79q-219 0 -391 -76l-121 74l121 678h1059l-27 -156h-897l-74 -426q195 57 350 57q268 -1 420 -119t116 -334t-220 -346t-488 -130z" />
    <glyph glyph-name="six" unicode="6" horiz-adv-x="1497" 
d="M870 731q-289 0 -555 -162q0 -205 119 -319q120 -114 320 -113q200 0 329 82t154 220t-75 215t-292 77zM999 1454q305 0 486 -211l-105 -123q-131 178 -386 178t-431 -147t-229 -414q255 148 512 148t421 -106q79 -52 115 -142t17 -205q-35 -205 -207 -329t-432 -123
q-317 0 -485 201q-167 202 -107 549q60 348 294 536q232 188 537 188z" />
    <glyph glyph-name="seven" unicode="7" horiz-adv-x="1392" 
d="M252 1434h1196l-21 -123l-938 -1311h-196l915 1278h-985z" />
    <glyph glyph-name="eight" unicode="8" horiz-adv-x="1515" 
d="M798 694q-232 0 -376 -76t-166 -206q-23 -130 91 -206q114 -75 341 -75t373 77q145 77 167 206q22 128 -88 204t-342 76zM809 846q193 0 314 59t139 167t-73 170t-285 62t-314 -64q-120 -65 -137 -170q-16 -105 73 -165q90 -59 283 -59zM909 1454q264 0 406 -105
q141 -106 112 -282q-39 -217 -301 -297q311 -100 263 -371q-31 -190 -219 -305q-188 -114 -492 -114q-305 0 -462 122t-122 320q47 268 385 356q-229 92 -186 312q31 168 191 266q161 98 425 98z" />
    <glyph glyph-name="nine" unicode="9" horiz-adv-x="1497" 
d="M705 702q289 0 555 162q-2 205 -121 320q-119 114 -319 114t-328 -83q-129 -83 -154 -221q-24 -138 76 -215t291 -77zM813 1454q319 0 486 -202t106 -548t-293 -536q-232 -188 -537 -188q-304 0 -487 213l107 120q129 -176 384 -176q255 1 431 147t231 412
q-262 -145 -516 -145t-418 105q-80 52 -117 142t-16 203q35 203 208 328t431 125z" />
    <glyph glyph-name="colon" unicode=":" 
 />
    <glyph glyph-name="semicolon" unicode=";" 
 />
    <glyph glyph-name="less" unicode="&#x3c;" 
 />
    <glyph glyph-name="equal" unicode="=" 
 />
    <glyph glyph-name="greater" unicode="&#x3e;" 
 />
    <glyph glyph-name="question" unicode="?" horiz-adv-x="1343" 
d="M560 -20q-52 0 -85 38t-23 90q10 50 46 82q37 32 89 31q52 0 85 -39q32 -39 24 -89q-8 -49 -46 -81t-90 -32zM850 1454q224 0 356 -112t103 -285q-23 -121 -111 -212t-242 -196l-327 -223l-123 96l354 240q203 136 253 220q24 40 32 85q18 100 -63 166q-80 65 -250 65
t-298 -66t-200 -173l-127 90q96 139 258 222q161 83 385 83z" />
    <glyph glyph-name="at" unicode="@" 
 />
    <glyph glyph-name="A" unicode="A" horiz-adv-x="1583" 
d="M455 494h686l-211 741zM-39 0v14l918 1420h147l422 -1424l-2 -10h-164l-96 336h-832l-215 -336h-178z" />
    <glyph glyph-name="B" unicode="B" horiz-adv-x="1583" 
d="M991 158q115 0 198 66t101 175q18 107 -39 177t-178 69h-667l-87 -487h672zM993 795q123 1 205 65t101 174t-37 176q-56 68 -170 68h-574l-84 -483h559zM1085 1434q197 0 303 -115t74 -285q-37 -219 -239 -301q119 -31 185 -126t39 -249q-28 -154 -162 -256t-318 -102
h-838l252 1434h704z" />
    <glyph glyph-name="C" unicode="C" horiz-adv-x="1624" 
d="M797 -20q-315 0 -498 214q-182 214 -128 530t291 523t564 207q221 0 373 -103t203 -264l-148 -69q-37 127 -147 204q-111 77 -287 76q-264 0 -456 -162q-191 -163 -234 -413t88 -418t387 -168q170 0 316 79t235 210l127 -88q-107 -162 -289 -260t-397 -98z" />
    <glyph glyph-name="D" unicode="D" horiz-adv-x="1648" 
d="M911 1278h-393l-196 -1120h383q259 0 451 158t235 403q43 247 -91 403t-389 156zM913 1434q324 0 508 -208t132 -518q-53 -310 -291 -509t-574 -199h-559l252 1434h532z" />
    <glyph glyph-name="E" unicode="E" horiz-adv-x="1439" 
d="M1241 0h-1112l252 1434h1102l-29 -156h-936l-84 -481h604l-28 -156h-604l-84 -483h946z" />
    <glyph glyph-name="F" unicode="F" horiz-adv-x="1402" 
d="M381 1434h1096l-27 -156h-932l-92 -522h635l-29 -156h-633l-106 -600h-164z" />
    <glyph glyph-name="G" unicode="G" horiz-adv-x="1697" 
d="M840 -20q-366 0 -546 215q-179 215 -125 526t297 522t574 211q221 0 377 -99t211 -268l-149 -69q-37 133 -151 207t-290 73q-268 0 -466 -164t-242 -414q-44 -251 89 -417q134 -166 429 -166t516 205l47 262h-463l29 150h567l-2 -4h47l-88 -508q-295 -262 -661 -262z" />
    <glyph glyph-name="H" unicode="H" horiz-adv-x="1685" 
d="M1466 1434h164l-252 -1434h-164l117 659h-921l-117 -659h-164l252 1434h164l-109 -619h922z" />
    <glyph glyph-name="I" unicode="I" horiz-adv-x="600" 
d="M381 1434h164l-252 -1434h-164z" />
    <glyph glyph-name="J" unicode="J" horiz-adv-x="1452" 
d="M620 -20q-248 0 -376 108q-129 108 -164 281l151 65q27 -145 113 -221t282 -76t324 108q129 108 166 312l154 877h164l-158 -887q-48 -289 -228 -428t-428 -139z" />
    <glyph glyph-name="K" unicode="K" horiz-adv-x="1556" 
d="M1626 1434l-2 -11l-711 -598l488 -815l-2 -10h-168l-440 723l-435 -365l-63 -358h-164l252 1434h164l-150 -852l1018 852h213z" />
    <glyph glyph-name="L" unicode="L" horiz-adv-x="1382" 
d="M1204 0h-1075l252 1434h164l-223 -1276h909z" />
    <glyph glyph-name="M" unicode="M" horiz-adv-x="1890" 
d="M1679 1434h156l-252 -1434h-164l201 1145l-676 -731h-20l-428 745l-203 -1159h-164l252 1434h137l443 -779z" />
    <glyph glyph-name="N" unicode="N" horiz-adv-x="1705" 
d="M1487 1434h164l-252 -1434h-142l-757 1184l-207 -1184h-164l252 1434h143l756 -1184z" />
    <glyph glyph-name="O" unicode="O" horiz-adv-x="1771" 
d="M816 137q261 0 458 162t242 420q46 258 -88 419q-134 160 -395 160t-458 -162t-243 -421q-46 -258 89 -418q134 -160 395 -160zM809 -20q-334 0 -513 217t-125 528t297 520q242 209 574 209t511 -216t125 -528t-294 -521t-575 -209z" />
    <glyph glyph-name="P" unicode="P" horiz-adv-x="1562" 
d="M1114 1278h-596l-104 -588h590q139 0 243 84t127 212t-51 210t-209 82zM1106 1434q215 0 338 -131t91 -325t-184 -320q-153 -124 -374 -123h-590l-94 -535h-164l252 1434h725z" />
    <glyph glyph-name="Q" unicode="Q" horiz-adv-x="1771" 
d="M816 137q261 0 458 162t242 420q46 258 -88 419q-134 160 -395 160t-458 -162t-243 -421q-46 -258 89 -418q134 -160 395 -160zM1042 1454q332 0 511 -216t124 -531q-37 -213 -168 -385t-327 -263l288 -256l-135 -92l-325 291q-102 -23 -203 -22q-332 0 -511 217
t-125 528t297 520q242 209 574 209z" />
    <glyph glyph-name="R" unicode="R" horiz-adv-x="1587" 
d="M1098 1278h-580l-96 -547h565q143 0 245 75q101 75 124 200q23 124 -52 198t-206 74zM1092 1434q213 0 336 -124t90 -317q-27 -150 -128 -254t-257 -143l294 -588l-2 -8h-172l-286 578h-572l-102 -578h-164l252 1434h711z" />
    <glyph glyph-name="S" unicode="S" horiz-adv-x="1488" 
d="M674 -20q-389 0 -617 213l107 124q174 -180 520 -180q211 0 349 69q139 68 159 186t-72 166t-360 85q-102 15 -171 27t-152 42t-128 70t-70 107q-26 68 -10 155q35 188 213 299t416 111t380 -91t189 -239l-143 -67q-63 242 -422 241q-196 0 -322 -72t-146 -186
q-20 -116 68 -164q87 -48 352 -84t374 -87q207 -92 168 -316q-36 -201 -222 -305t-460 -104z" />
    <glyph glyph-name="T" unicode="T" horiz-adv-x="1439" 
d="M233 1434h1301l-29 -156h-567l-225 -1278h-164l225 1278h-569z" />
    <glyph glyph-name="U" unicode="U" horiz-adv-x="1617" 
d="M729 -20q-129 0 -237 36q-235 80 -291 300q-31 118 -4 270l149 848h164l-152 -859q-36 -215 64 -327t317 -111q217 0 364 114q146 114 183 335l150 848h163l-151 -859q-26 -157 -96 -275q-127 -214 -380 -288q-114 -32 -243 -32z" />
    <glyph glyph-name="V" unicode="V" horiz-adv-x="1548" 
d="M610 0l-399 1423l2 11h156l344 -1237l770 1237h180l-2 -11l-897 -1423h-154z" />
    <glyph glyph-name="W" unicode="W" horiz-adv-x="2166" 
d="M442 0l-211 1423l2 11h150l176 -1198l610 1146h131l201 -1146l588 1198h172l-4 -15l-707 -1419h-155l-199 1133l-598 -1133h-156z" />
    <glyph glyph-name="X" unicode="X" horiz-adv-x="1536" 
d="M1544 1434l-2 -15l-637 -669l455 -736l-2 -14h-168l-391 637l-604 -637h-193l2 14l715 750l-404 655l4 15h162l344 -557l531 557h188z" />
    <glyph glyph-name="Y" unicode="Y" horiz-adv-x="1470" 
d="M1565 1434l-2 -11l-727 -819l-107 -604h-164l107 610l-441 813l2 11h162l373 -691l606 691h191z" />
    <glyph glyph-name="Z" unicode="Z" horiz-adv-x="1361" 
d="M1395 1434l-21 -117l-1085 -1159h901l-27 -158h-1140l18 111l1092 1167h-861l27 156h1096z" />
    <glyph glyph-name="bracketleft" unicode="[" 
 />
    <glyph glyph-name="backslash" unicode="\" 
 />
    <glyph glyph-name="bracketright" unicode="]" 
 />
    <glyph glyph-name="asciicircum" unicode="^" 
 />
    <glyph glyph-name="underscore" unicode="_" 
 />
    <glyph glyph-name="a" unicode="a" horiz-adv-x="1341" 
d="M584 125q242 0 393 184l65 375q-98 197 -321 197q-178 0 -300 -108q-122 -109 -153 -275q-32 -166 54 -270t262 -103zM722 1024q245 0 349 -180l27 160h155l-176 -1004h-155l24 137q-152 -157 -387 -157t-360 156t-88 373q37 218 201 367q165 148 410 148z" />
    <glyph glyph-name="b" unicode="b" horiz-adv-x="1341" 
d="M758 881q-233 0 -396 -199l-65 -371q84 -186 315 -186q182 0 307 102q123 103 152 269q31 166 -54 276t-259 109zM784 1024q230 0 356 -161t90 -376t-202 -361t-408 -146t-350 174l-26 -154h-156l252 1434h156l-101 -574q158 164 389 164z" />
    <glyph glyph-name="c" unicode="c" horiz-adv-x="1200" 
d="M571 -20q-249 0 -373 154t-86 377q38 222 205 368q168 145 404 145q165 0 275 -72t149 -190l-131 -62q-72 180 -293 181q-176 -1 -300 -107t-153 -270q-30 -164 52 -272t260 -107q238 0 362 190l119 -84q-76 -119 -205 -185t-285 -66z" />
    <glyph glyph-name="d" unicode="d" horiz-adv-x="1341" 
d="M584 125q242 0 393 184l65 375q-98 197 -321 197q-178 0 -300 -108q-122 -109 -153 -275q-32 -166 54 -270t262 -103zM722 1024q245 0 349 -180l103 590h155l-252 -1434h-155l24 137q-152 -157 -387 -157t-360 156t-88 373q37 218 201 367q165 148 410 148z" />
    <glyph glyph-name="e" unicode="e" horiz-adv-x="1226" 
d="M699 883q-151 1 -265 -87t-158 -235h711q14 152 -61 237q-76 85 -227 85zM716 1024q234 0 350 -167t42 -429h-854q-4 -141 82 -224t270 -83t340 127l64 -125q-190 -143 -430 -143t-374 150t-94 376q40 225 204 372q166 146 400 146z" />
    <glyph glyph-name="f" unicode="f" horiz-adv-x="811" 
d="M755 1333q-99 0 -165 -54t-84 -155l-21 -120h389l-24 -142h-389l-152 -862h-155l151 862h-192l24 142h193l24 141q29 160 133 245q105 85 237 85t224 -54l-24 -137q-70 49 -169 49z" />
    <glyph glyph-name="g" unicode="g" horiz-adv-x="1341" 
d="M580 125q231 0 397 184l63 369q-84 203 -317 203q-180 -1 -302 -107t-152 -273q-31 -167 53 -271t258 -105zM475 -430q-252 0 -412 149l91 121q117 -127 317 -127t316 92t145 254l14 78q-152 -157 -387 -157t-360 156t-88 373q37 218 201 367q165 148 410 148t349 -180
l27 160h155l-168 -955q-39 -229 -199 -354t-411 -125z" />
    <glyph glyph-name="h" unicode="h" horiz-adv-x="1259" 
d="M774 1024q196 0 290 -113q93 -113 60 -299l-106 -612h-154l109 623q20 121 -37 189t-178 69q-201 0 -396 -207l-118 -674h-156l252 1434h156l-101 -574q183 164 379 164z" />
    <glyph glyph-name="i" unicode="i" horiz-adv-x="507" 
d="M420 1004l-176 -1004h-156l176 1004h156zM386 1210q-48 0 -79 36t-23 82t44 75q35 29 83 29q49 0 79 -35t21 -81t-43 -76t-82 -30z" />
    <glyph glyph-name="j" unicode="j" horiz-adv-x="530" 
d="M-106 -442l-54 135q119 25 180 85t80 173l187 1053h153l-188 -1074q-28 -168 -110 -254t-248 -118zM409 1210q-48 0 -79 35t-23 88q10 41 43 70t81 29t80 -36q33 -36 23 -82t-44 -75t-81 -29z" />
    <glyph glyph-name="k" unicode="k" horiz-adv-x="1165" 
d="M1169 1004l-2 -11l-475 -424l316 -561l-2 -8h-160l-268 467l-299 -266l-35 -201h-156l252 1434h156l-179 -1010l656 580h196z" />
    <glyph glyph-name="l" unicode="l" horiz-adv-x="507" 
d="M88 0l260 1475h156l-260 -1475h-156z" />
    <glyph glyph-name="m" unicode="m" horiz-adv-x="1875" 
d="M1386 1024q190 0 288 -115q99 -115 69 -295l-109 -614h-153l108 625q19 113 -29 185t-171 71q-180 0 -328 -172q0 -45 -6 -91l-109 -618h-153l108 629q18 106 -31 179t-163 73q-186 0 -345 -203l-118 -678h-156l176 1004h156l-25 -134q158 154 338 154q209 0 291 -160
q172 160 362 160z" />
    <glyph glyph-name="n" unicode="n" horiz-adv-x="1259" 
d="M774 1024q196 0 290 -113q93 -113 60 -299l-106 -612h-154l109 623q20 121 -37 189t-178 69q-201 0 -398 -207l-116 -674h-156l176 1004h156l-25 -144q183 164 379 164z" />
    <glyph glyph-name="o" unicode="o" horiz-adv-x="1300" 
d="M576 125q169 0 296 105q127 106 158 272t-53 272t-254 106t-297 -104q-127 -106 -157 -273t54 -273t253 -105zM569 -20q-239 0 -367 156t-90 374t211 366t411 148t366 -155q127 -155 89 -375t-209 -366q-171 -148 -411 -148z" />
    <glyph glyph-name="p" unicode="p" horiz-adv-x="1341" 
d="M760 881q-233 0 -395 -199l-66 -371q84 -186 315 -186q182 0 306 102q122 103 151 269q31 166 -53 276t-258 109zM784 1024q232 0 356 -161q126 -161 90 -376t-202 -361t-408 -146t-350 174l-98 -564h-156l250 1414h156l-27 -144q157 164 389 164z" />
    <glyph glyph-name="q" unicode="q" horiz-adv-x="1341" 
d="M721 881q-178 0 -300 -108q-122 -109 -153 -275q-32 -166 54 -270t262 -103q239 0 391 184l67 375q-98 197 -321 197zM722 1024q245 0 349 -180l27 160h155l-249 -1414h-156l96 547q-152 -157 -386 -157t-359 156t-88 373q37 218 201 367q165 148 410 148z" />
    <glyph glyph-name="r" unicode="r" horiz-adv-x="821" 
d="M387 823q182 207 457 201l-29 -154q-133 2 -259 -60t-202 -179l-110 -631h-156l176 1004h156z" />
    <glyph glyph-name="s" unicode="s" horiz-adv-x="1130" 
d="M492 -20q-276 0 -455 143l86 121q137 -123 379 -123q303 0 336 162q14 73 -47 101t-228 50q-267 35 -342 105q-74 70 -52 196q22 127 152 208t312 81t283 -70t131 -178l-132 -53q-37 160 -280 160q-129 0 -213 -43t-97 -114q-13 -70 49 -104t182 -50t176 -26
q144 -28 213 -90q69 -61 50 -182q-27 -143 -159 -219q-133 -75 -344 -75z" />
    <glyph glyph-name="t" unicode="t" horiz-adv-x="927" 
d="M532 121q113 0 218 51l-25 -145q-97 -47 -231 -47t-214 82t-55 223l101 577h-193l25 142h192l53 307h156l-55 -307h405l-24 -142h-406l-100 -579q-29 -162 153 -162z" />
    <glyph glyph-name="u" unicode="u" horiz-adv-x="1259" 
d="M504 125q197 0 393 205l119 674h155l-176 -1004h-155l24 143q-182 -164 -395 -163q-180 0 -273 112t-61 299l107 613h155l-108 -623q-20 -121 37 -189t178 -67z" />
    <glyph glyph-name="v" unicode="v" horiz-adv-x="1167" 
d="M127 1004h154l239 -822l527 822h167v-9l-643 -995h-147l-297 995v9z" />
    <glyph glyph-name="w" unicode="w" horiz-adv-x="1597" 
d="M137 1004h146l116 -773l424 734h105l162 -738l385 777h161l-2 -9l-504 -995h-129l-161 721l-416 -721h-129l-158 995v9z" />
    <glyph glyph-name="x" unicode="x" horiz-adv-x="1142" 
d="M-18 0v10l501 516l-301 469l2 9h160l242 -371l362 371h189l-2 -9l-471 -485l323 -502l-2 -8h-164l-262 403l-391 -403h-186z" />
    <glyph glyph-name="y" unicode="y" horiz-adv-x="1163" 
d="M1036 1004h176l-2 -9l-866 -1405h-178l2 9l274 424l-307 972l2 9h154l250 -826z" />
    <glyph glyph-name="z" unicode="z" horiz-adv-x="1101" 
d="M1063 1004l-19 -113l-772 -750h656l-25 -141h-880l18 113l770 749h-616l24 142h844z" />
    <glyph glyph-name="braceleft" unicode="{" 
 />
    <glyph glyph-name="bar" unicode="|" 
 />
    <glyph glyph-name="braceright" unicode="}" 
 />
    <glyph glyph-name="asciitilde" unicode="~" 
 />
    <glyph glyph-name="exclamdown" unicode="&#xa1;" 
 />
    <glyph glyph-name="cent" unicode="&#xa2;" 
 />
    <glyph glyph-name="sterling" unicode="&#xa3;" 
 />
    <glyph glyph-name="yen" unicode="&#xa5;" 
 />
    <glyph glyph-name="copyright" unicode="&#xa9;" 
 />
    <glyph glyph-name="guillemotleft" unicode="&#xab;" 
 />
    <glyph glyph-name="registered" unicode="&#xae;" 
 />
    <glyph glyph-name="degree" unicode="&#xb0;" 
 />
    <glyph glyph-name="plusminus" unicode="&#xb1;" 
 />
    <glyph glyph-name="periodcentered" unicode="&#xb7;" 
 />
    <glyph glyph-name="guillemotright" unicode="&#xbb;" 
 />
    <glyph glyph-name="questiondown" unicode="&#xbf;" 
 />
    <glyph glyph-name="Agrave" unicode="&#xc0;" 
 />
    <glyph glyph-name="Aacute" unicode="&#xc1;" 
 />
    <glyph glyph-name="Acircumflex" unicode="&#xc2;" 
 />
    <glyph glyph-name="Atilde" unicode="&#xc3;" 
 />
    <glyph glyph-name="Adieresis" unicode="&#xc4;" 
 />
    <glyph glyph-name="Aring" unicode="&#xc5;" 
 />
    <glyph glyph-name="AE" unicode="&#xc6;" 
 />
    <glyph glyph-name="Ccedilla" unicode="&#xc7;" 
 />
    <glyph glyph-name="Egrave" unicode="&#xc8;" 
 />
    <glyph glyph-name="Eacute" unicode="&#xc9;" 
 />
    <glyph glyph-name="Ecircumflex" unicode="&#xca;" 
 />
    <glyph glyph-name="Edieresis" unicode="&#xcb;" 
 />
    <glyph glyph-name="Igrave" unicode="&#xcc;" 
 />
    <glyph glyph-name="Iacute" unicode="&#xcd;" 
 />
    <glyph glyph-name="Icircumflex" unicode="&#xce;" 
 />
    <glyph glyph-name="Idieresis" unicode="&#xcf;" 
 />
    <glyph glyph-name="Eth" unicode="&#xd0;" 
 />
    <glyph glyph-name="Ntilde" unicode="&#xd1;" 
 />
    <glyph glyph-name="Ograve" unicode="&#xd2;" 
 />
    <glyph glyph-name="Oacute" unicode="&#xd3;" 
 />
    <glyph glyph-name="Ocircumflex" unicode="&#xd4;" 
 />
    <glyph glyph-name="Otilde" unicode="&#xd5;" 
 />
    <glyph glyph-name="Odieresis" unicode="&#xd6;" 
 />
    <glyph glyph-name="multiply" unicode="&#xd7;" 
 />
    <glyph glyph-name="Oslash" unicode="&#xd8;" 
 />
    <glyph glyph-name="Ugrave" unicode="&#xd9;" 
 />
    <glyph glyph-name="Uacute" unicode="&#xda;" 
 />
    <glyph glyph-name="Ucircumflex" unicode="&#xdb;" 
 />
    <glyph glyph-name="Udieresis" unicode="&#xdc;" 
 />
    <glyph glyph-name="Yacute" unicode="&#xdd;" 
 />
    <glyph glyph-name="Thorn" unicode="&#xde;" 
 />
    <glyph glyph-name="germandbls" unicode="&#xdf;" 
 />
    <glyph glyph-name="agrave" unicode="&#xe0;" 
 />
    <glyph glyph-name="aacute" unicode="&#xe1;" 
 />
    <glyph glyph-name="acircumflex" unicode="&#xe2;" 
 />
    <glyph glyph-name="atilde" unicode="&#xe3;" 
 />
    <glyph glyph-name="adieresis" unicode="&#xe4;" 
 />
    <glyph glyph-name="aring" unicode="&#xe5;" 
 />
    <glyph glyph-name="ae" unicode="&#xe6;" 
 />
    <glyph glyph-name="ccedilla" unicode="&#xe7;" 
 />
    <glyph glyph-name="egrave" unicode="&#xe8;" 
 />
    <glyph glyph-name="eacute" unicode="&#xe9;" 
 />
    <glyph glyph-name="ecircumflex" unicode="&#xea;" 
 />
    <glyph glyph-name="edieresis" unicode="&#xeb;" 
 />
    <glyph glyph-name="igrave" unicode="&#xec;" 
 />
    <glyph glyph-name="iacute" unicode="&#xed;" 
 />
    <glyph glyph-name="icircumflex" unicode="&#xee;" 
 />
    <glyph glyph-name="idieresis" unicode="&#xef;" 
 />
    <glyph glyph-name="eth" unicode="&#xf0;" 
 />
    <glyph glyph-name="ntilde" unicode="&#xf1;" 
 />
    <glyph glyph-name="ograve" unicode="&#xf2;" 
 />
    <glyph glyph-name="oacute" unicode="&#xf3;" 
 />
    <glyph glyph-name="ocircumflex" unicode="&#xf4;" 
 />
    <glyph glyph-name="otilde" unicode="&#xf5;" 
 />
    <glyph glyph-name="odieresis" unicode="&#xf6;" 
 />
    <glyph glyph-name="divide" unicode="&#xf7;" 
 />
    <glyph glyph-name="oslash" unicode="&#xf8;" 
 />
    <glyph glyph-name="ugrave" unicode="&#xf9;" 
 />
    <glyph glyph-name="uacute" unicode="&#xfa;" 
 />
    <glyph glyph-name="ucircumflex" unicode="&#xfb;" 
 />
    <glyph glyph-name="udieresis" unicode="&#xfc;" 
 />
    <glyph glyph-name="yacute" unicode="&#xfd;" 
 />
    <glyph glyph-name="thorn" unicode="&#xfe;" 
 />
    <glyph glyph-name="ydieresis" unicode="&#xff;" 
 />
    <glyph glyph-name="Amacron" unicode="&#x100;" 
 />
    <glyph glyph-name="amacron" unicode="&#x101;" 
 />
    <glyph glyph-name="Abreve" unicode="&#x102;" 
 />
    <glyph glyph-name="abreve" unicode="&#x103;" 
 />
    <glyph glyph-name="Aogonek" unicode="&#x104;" 
 />
    <glyph glyph-name="aogonek" unicode="&#x105;" 
 />
    <glyph glyph-name="Cacute" unicode="&#x106;" 
 />
    <glyph glyph-name="cacute" unicode="&#x107;" 
 />
    <glyph glyph-name="Cdotaccent" unicode="&#x10a;" 
 />
    <glyph glyph-name="cdotaccent" unicode="&#x10b;" 
 />
    <glyph glyph-name="Ccaron" unicode="&#x10c;" 
 />
    <glyph glyph-name="ccaron" unicode="&#x10d;" 
 />
    <glyph glyph-name="Dcaron" unicode="&#x10e;" 
 />
    <glyph glyph-name="dcaron" unicode="&#x10f;" 
 />
    <glyph glyph-name="Dcroat" unicode="&#x110;" 
 />
    <glyph glyph-name="dcroat" unicode="&#x111;" 
 />
    <glyph glyph-name="Emacron" unicode="&#x112;" 
 />
    <glyph glyph-name="emacron" unicode="&#x113;" 
 />
    <glyph glyph-name="Edotaccent" unicode="&#x116;" 
 />
    <glyph glyph-name="edotaccent" unicode="&#x117;" 
 />
    <glyph glyph-name="Eogonek" unicode="&#x118;" 
 />
    <glyph glyph-name="eogonek" unicode="&#x119;" 
 />
    <glyph glyph-name="Ecaron" unicode="&#x11a;" 
 />
    <glyph glyph-name="ecaron" unicode="&#x11b;" 
 />
    <glyph glyph-name="Gbreve" unicode="&#x11e;" 
 />
    <glyph glyph-name="gbreve" unicode="&#x11f;" 
 />
    <glyph glyph-name="Gdotaccent" unicode="&#x120;" 
 />
    <glyph glyph-name="gdotaccent" unicode="&#x121;" 
 />
    <glyph glyph-name="Gcommaaccent" unicode="&#x122;" 
 />
    <glyph glyph-name="gcommaaccent" unicode="&#x123;" 
 />
    <glyph glyph-name="Hbar" unicode="&#x126;" 
 />
    <glyph glyph-name="hbar" unicode="&#x127;" 
 />
    <glyph glyph-name="Imacron" unicode="&#x12a;" 
 />
    <glyph glyph-name="imacron" unicode="&#x12b;" 
 />
    <glyph glyph-name="Iogonek" unicode="&#x12e;" 
 />
    <glyph glyph-name="iogonek" unicode="&#x12f;" 
 />
    <glyph glyph-name="Idotaccent" unicode="&#x130;" 
 />
    <glyph glyph-name="dotlessi" unicode="&#x131;" 
 />
    <glyph glyph-name="Kcommaaccent" unicode="&#x136;" 
 />
    <glyph glyph-name="kcommaaccent" unicode="&#x137;" 
 />
    <glyph glyph-name="Lacute" unicode="&#x139;" 
 />
    <glyph glyph-name="lacute" unicode="&#x13a;" 
 />
    <glyph glyph-name="Lcommaaccent" unicode="&#x13b;" 
 />
    <glyph glyph-name="lcommaaccent" unicode="&#x13c;" 
 />
    <glyph glyph-name="Lcaron" unicode="&#x13d;" 
 />
    <glyph glyph-name="lcaron" unicode="&#x13e;" 
 />
    <glyph glyph-name="Lslash" unicode="&#x141;" 
 />
    <glyph glyph-name="lslash" unicode="&#x142;" 
 />
    <glyph glyph-name="Nacute" unicode="&#x143;" 
 />
    <glyph glyph-name="nacute" unicode="&#x144;" 
 />
    <glyph glyph-name="Ncommaaccent" unicode="&#x145;" 
 />
    <glyph glyph-name="ncommaaccent" unicode="&#x146;" 
 />
    <glyph glyph-name="Ncaron" unicode="&#x147;" 
 />
    <glyph glyph-name="ncaron" unicode="&#x148;" 
 />
    <glyph glyph-name="Eng" unicode="&#x14a;" 
 />
    <glyph glyph-name="eng" unicode="&#x14b;" 
 />
    <glyph glyph-name="Omacron" unicode="&#x14c;" 
 />
    <glyph glyph-name="omacron" unicode="&#x14d;" 
 />
    <glyph glyph-name="Ohungarumlaut" unicode="&#x150;" 
 />
    <glyph glyph-name="ohungarumlaut" unicode="&#x151;" 
 />
    <glyph glyph-name="OE" unicode="&#x152;" 
 />
    <glyph glyph-name="oe" unicode="&#x153;" 
 />
    <glyph glyph-name="Racute" unicode="&#x154;" 
 />
    <glyph glyph-name="racute" unicode="&#x155;" 
 />
    <glyph glyph-name="Rcommaaccent" unicode="&#x156;" 
 />
    <glyph glyph-name="rcommaaccent" unicode="&#x157;" 
 />
    <glyph glyph-name="Rcaron" unicode="&#x158;" 
 />
    <glyph glyph-name="rcaron" unicode="&#x159;" 
 />
    <glyph glyph-name="Sacute" unicode="&#x15a;" 
 />
    <glyph glyph-name="sacute" unicode="&#x15b;" 
 />
    <glyph glyph-name="Scedilla" unicode="&#x15e;" 
 />
    <glyph glyph-name="scedilla" unicode="&#x15f;" 
 />
    <glyph glyph-name="Scaron" unicode="&#x160;" 
 />
    <glyph glyph-name="scaron" unicode="&#x161;" 
 />
    <glyph glyph-name="uni0162" unicode="&#x162;" 
 />
    <glyph glyph-name="uni0163" unicode="&#x163;" 
 />
    <glyph glyph-name="Tcaron" unicode="&#x164;" 
 />
    <glyph glyph-name="tcaron" unicode="&#x165;" 
 />
    <glyph glyph-name="Tbar" unicode="&#x166;" 
 />
    <glyph glyph-name="tbar" unicode="&#x167;" 
 />
    <glyph glyph-name="Umacron" unicode="&#x16a;" 
 />
    <glyph glyph-name="umacron" unicode="&#x16b;" 
 />
    <glyph glyph-name="Uring" unicode="&#x16e;" 
 />
    <glyph glyph-name="uring" unicode="&#x16f;" 
 />
    <glyph glyph-name="Uhungarumlaut" unicode="&#x170;" 
 />
    <glyph glyph-name="uhungarumlaut" unicode="&#x171;" 
 />
    <glyph glyph-name="Uogonek" unicode="&#x172;" 
 />
    <glyph glyph-name="uogonek" unicode="&#x173;" 
 />
    <glyph glyph-name="Wcircumflex" unicode="&#x174;" 
 />
    <glyph glyph-name="wcircumflex" unicode="&#x175;" 
 />
    <glyph glyph-name="Ycircumflex" unicode="&#x176;" 
 />
    <glyph glyph-name="ycircumflex" unicode="&#x177;" 
 />
    <glyph glyph-name="Ydieresis" unicode="&#x178;" 
 />
    <glyph glyph-name="Zacute" unicode="&#x179;" 
 />
    <glyph glyph-name="zacute" unicode="&#x17a;" 
 />
    <glyph glyph-name="Zdotaccent" unicode="&#x17b;" 
 />
    <glyph glyph-name="zdotaccent" unicode="&#x17c;" 
 />
    <glyph glyph-name="Zcaron" unicode="&#x17d;" 
 />
    <glyph glyph-name="zcaron" unicode="&#x17e;" 
 />
    <glyph glyph-name="Scommaaccent" unicode="&#x218;" 
 />
    <glyph glyph-name="scommaaccent" unicode="&#x219;" 
 />
    <glyph glyph-name="uni021A" unicode="&#x21a;" 
 />
    <glyph glyph-name="uni021B" unicode="&#x21b;" 
 />
    <glyph glyph-name="gravecomb" unicode="&#x300;" horiz-adv-x="0" 
 />
    <glyph glyph-name="acutecomb" unicode="&#x301;" horiz-adv-x="0" 
 />
    <glyph glyph-name="uni0302" unicode="&#x302;" horiz-adv-x="0" 
 />
    <glyph glyph-name="tildecomb" unicode="&#x303;" horiz-adv-x="0" 
 />
    <glyph glyph-name="uni0304" unicode="&#x304;" horiz-adv-x="0" 
 />
    <glyph glyph-name="uni0306" unicode="&#x306;" horiz-adv-x="0" 
 />
    <glyph glyph-name="uni0307" unicode="&#x307;" horiz-adv-x="0" 
 />
    <glyph glyph-name="uni0308" unicode="&#x308;" horiz-adv-x="0" 
 />
    <glyph glyph-name="uni030A" unicode="&#x30a;" horiz-adv-x="0" 
 />
    <glyph glyph-name="uni030B" unicode="&#x30b;" horiz-adv-x="0" 
 />
    <glyph glyph-name="uni030C" unicode="&#x30c;" horiz-adv-x="0" 
 />
    <glyph glyph-name="uni0312" unicode="&#x312;" horiz-adv-x="0" 
 />
    <glyph glyph-name="uni0326" unicode="&#x326;" horiz-adv-x="0" 
 />
    <glyph glyph-name="uni0327" unicode="&#x327;" horiz-adv-x="0" 
 />
    <glyph glyph-name="uni0328" unicode="&#x328;" horiz-adv-x="0" 
 />
    <glyph glyph-name="uni0335" unicode="&#x335;" horiz-adv-x="0" 
 />
    <glyph glyph-name="uni0336" unicode="&#x336;" horiz-adv-x="0" 
 />
    <glyph glyph-name="uni0337" unicode="&#x337;" horiz-adv-x="0" 
 />
    <glyph glyph-name="uni0338" unicode="&#x338;" horiz-adv-x="0" 
 />
    <glyph glyph-name="Wgrave" unicode="&#x1e80;" 
 />
    <glyph glyph-name="wgrave" unicode="&#x1e81;" 
 />
    <glyph glyph-name="Wacute" unicode="&#x1e82;" 
 />
    <glyph glyph-name="wacute" unicode="&#x1e83;" 
 />
    <glyph glyph-name="Wdieresis" unicode="&#x1e84;" 
 />
    <glyph glyph-name="wdieresis" unicode="&#x1e85;" 
 />
    <glyph glyph-name="Ygrave" unicode="&#x1ef2;" 
 />
    <glyph glyph-name="ygrave" unicode="&#x1ef3;" 
 />
    <glyph glyph-name="endash" unicode="&#x2013;" 
 />
    <glyph glyph-name="emdash" unicode="&#x2014;" 
 />
    <glyph glyph-name="quoteleft" unicode="&#x2018;" 
 />
    <glyph glyph-name="quoteright" unicode="&#x2019;" 
 />
    <glyph glyph-name="quotesinglbase" unicode="&#x201a;" 
 />
    <glyph glyph-name="quotedblleft" unicode="&#x201c;" 
 />
    <glyph glyph-name="quotedblright" unicode="&#x201d;" 
 />
    <glyph glyph-name="quotedblbase" unicode="&#x201e;" 
 />
    <glyph glyph-name="bullet" unicode="&#x2022;" 
 />
    <glyph glyph-name="ellipsis" unicode="&#x2026;" 
 />
    <glyph glyph-name="guilsinglleft" unicode="&#x2039;" 
 />
    <glyph glyph-name="guilsinglright" unicode="&#x203a;" 
 />
    <glyph glyph-name="Euro" unicode="&#x20ac;" 
 />
    <glyph glyph-name="uni2116" unicode="&#x2116;" 
 />
    <glyph glyph-name="trademark" unicode="&#x2122;" 
 />
    <glyph glyph-name="minus" unicode="&#x2212;" 
 />
    <glyph glyph-name="approxequal" unicode="&#x2248;" 
 />
    <glyph glyph-name="notequal" unicode="&#x2260;" 
 />
    <glyph glyph-name="lessequal" unicode="&#x2264;" 
 />
    <glyph glyph-name="greaterequal" unicode="&#x2265;" 
 />
    <glyph glyph-name="i.loclTRK" 
 />
    <glyph glyph-name="a.ss01" horiz-adv-x="1202" 
d="M436 121q233 0 422 176l29 172l-334 -23q-156 -12 -214 -31t-84 -49t-34 -75q-14 -78 43 -124t172 -46zM702 1024q198 0 299 -110q100 -110 70 -283l-110 -631h-156l24 137q-178 -158 -411 -157q-180 0 -279 86q-98 86 -73 239q12 70 49 121t81 79q109 70 363 83l352 18
l7 35q20 113 -34 177t-210 65q-266 0 -367 -181l-119 74q66 108 191 178t323 70z" />
    <glyph glyph-name="aacute.ss01" 
 />
    <glyph glyph-name="abreve.ss01" 
 />
    <glyph glyph-name="acircumflex.ss01" 
 />
    <glyph glyph-name="adieresis.ss01" 
 />
    <glyph glyph-name="agrave.ss01" 
 />
    <glyph glyph-name="amacron.ss01" 
 />
    <glyph glyph-name="aogonek.ss01" 
 />
    <glyph glyph-name="aring.ss01" 
 />
    <glyph glyph-name="atilde.ss01" 
 />
    <glyph glyph-name="ae.ss01" 
 />
    <glyph glyph-name="f_f_j" 
 />
    <glyph glyph-name="f_i" 
 />
    <glyph glyph-name="f_j" 
 />
    <glyph glyph-name="a.sc" horiz-adv-x="1163" 
d="M338 344h444l-137 477zM881 0l-60 207h-573l-131 -207h-166l-2 10l645 994h147l293 -994l2 -10h-155z" />
    <glyph glyph-name="aacute.sc" 
 />
    <glyph glyph-name="abreve.sc" 
 />
    <glyph glyph-name="acircumflex.sc" 
 />
    <glyph glyph-name="adieresis.sc" 
 />
    <glyph glyph-name="agrave.sc" 
 />
    <glyph glyph-name="amacron.sc" 
 />
    <glyph glyph-name="aogonek.sc" 
 />
    <glyph glyph-name="aring.sc" 
 />
    <glyph glyph-name="atilde.sc" 
 />
    <glyph glyph-name="ae.sc" 
 />
    <glyph glyph-name="b.sc" horiz-adv-x="1155" 
d="M725 440h-403l-56 -307h393q88 0 147 44q58 44 69 115q11 72 -29 110t-121 38zM680 567q82 0 138 41t69 115q12 74 -29 111t-123 36h-340l-53 -303h338zM690 0h-602l176 1004h512q132 0 208 -82t56 -199q-27 -150 -172 -211q80 -24 126 -92t29 -174t-107 -176t-226 -70z
" />
    <glyph glyph-name="c.sc" horiz-adv-x="1200" 
d="M571 -20q-249 0 -373 154t-86 377q38 222 205 368q168 145 404 145q165 0 275 -72t149 -190l-131 -62q-72 180 -293 181q-176 -1 -300 -107t-153 -270q-30 -164 52 -272t260 -107q238 0 362 190l119 -84q-76 -119 -205 -185t-285 -66z" />
    <glyph glyph-name="cacute.sc" 
 />
    <glyph glyph-name="ccaron.sc" 
 />
    <glyph glyph-name="ccedilla.sc" 
 />
    <glyph glyph-name="cdotaccent.sc" 
 />
    <glyph glyph-name="d.sc" horiz-adv-x="1212" 
d="M649 862h-254l-127 -721h244q158 -1 282 101t151 259q28 157 -54 259t-242 102zM664 1004q217 0 347 -148t92 -363q-38 -213 -204 -353t-401 -140h-410l176 1004h400z" />
    <glyph glyph-name="eth.sc" 
 />
    <glyph glyph-name="dcaron.sc" 
 />
    <glyph glyph-name="dcroat.sc" 
 />
    <glyph glyph-name="e.sc" horiz-adv-x="1054" 
d="M881 0h-793l176 1004h778l-24 -142h-623l-51 -287h418l-27 -141h-416l-51 -293h637z" />
    <glyph glyph-name="eacute.sc" 
 />
    <glyph glyph-name="ecaron.sc" 
 />
    <glyph glyph-name="ecircumflex.sc" 
 />
    <glyph glyph-name="edieresis.sc" 
 />
    <glyph glyph-name="edotaccent.sc" 
 />
    <glyph glyph-name="egrave.sc" 
 />
    <glyph glyph-name="emacron.sc" 
 />
    <glyph glyph-name="eogonek.sc" 
 />
    <glyph glyph-name="f.sc" horiz-adv-x="1056" 
d="M264 1004h797l-27 -146h-641l-57 -326h452l-26 -143h-451l-67 -389h-156z" />
    <glyph glyph-name="g.sc" horiz-adv-x="1230" 
d="M721 1024q157 0 265 -71t144 -191l-129 -57q-53 178 -278 178q-174 -1 -300 -105t-157 -275q-30 -171 56 -277t268 -107q182 0 321 108l31 172h-297l25 140h438l-68 -394q-190 -165 -450 -165t-388 152t-89 375q39 222 205 370q167 147 403 147z" />
    <glyph glyph-name="gbreve.sc" 
 />
    <glyph glyph-name="gcommaaccent.sc" 
 />
    <glyph glyph-name="gdotaccent.sc" 
 />
    <glyph glyph-name="h.sc" horiz-adv-x="1280" 
d="M1036 1004h156l-176 -1004h-156l78 446h-616l-78 -446h-156l176 1004h156l-74 -416h619z" />
    <glyph glyph-name="hbar.sc" 
 />
    <glyph glyph-name="i.sc" horiz-adv-x="507" 
d="M264 1004h156l-176 -1004h-156z" />
    <glyph glyph-name="iacute.sc" 
 />
    <glyph glyph-name="icircumflex.sc" 
 />
    <glyph glyph-name="idieresis.sc" 
 />
    <glyph glyph-name="i.sc.loclTRK" 
 />
    <glyph glyph-name="igrave.sc" 
 />
    <glyph glyph-name="imacron.sc" 
 />
    <glyph glyph-name="iogonek.sc" 
 />
    <glyph glyph-name="j.sc" horiz-adv-x="1103" 
d="M430 -20q-336 0 -395 272l139 63q33 -190 254 -190q299 0 348 266l107 613h155l-110 -627q-70 -397 -498 -397z" />
    <glyph glyph-name="k.sc" horiz-adv-x="1161" 
d="M1169 1004l-2 -11l-475 -424l316 -561l-2 -8h-160l-268 467l-299 -266l-35 -201h-156l176 1004h156l-103 -580l656 580h196z" />
    <glyph glyph-name="kcommaaccent.sc" 
 />
    <glyph glyph-name="l.sc" horiz-adv-x="1019" 
d="M858 0h-770l176 1004h156l-152 -863h615z" />
    <glyph glyph-name="lacute.sc" 
 />
    <glyph glyph-name="lcaron.sc" 
 />
    <glyph glyph-name="lcommaaccent.sc" 
 />
    <glyph glyph-name="lslash.sc" 
 />
    <glyph glyph-name="m.sc" horiz-adv-x="1388" 
d="M1161 1004h137l-176 -1004h-153l125 723l-428 -465h-15l-278 485l-129 -743h-156l176 1004h119l297 -519z" />
    <glyph glyph-name="n.sc" horiz-adv-x="1257" 
d="M1014 1004h155l-176 -1004h-131l-485 766l-133 -766h-156l176 1004h131l486 -766z" />
    <glyph glyph-name="nacute.sc" 
 />
    <glyph glyph-name="ncaron.sc" 
 />
    <glyph glyph-name="ncommaaccent.sc" 
 />
    <glyph glyph-name="eng.sc" 
 />
    <glyph glyph-name="ntilde.sc" 
 />
    <glyph glyph-name="o.sc" horiz-adv-x="1300" 
d="M576 125q169 0 296 105q127 106 158 272t-53 272t-254 106t-297 -104q-127 -106 -157 -273t54 -273t253 -105zM569 -20q-239 0 -367 156t-90 374t211 366t411 148t366 -155q127 -155 89 -375t-209 -366q-171 -148 -411 -148z" />
    <glyph glyph-name="oacute.sc" 
 />
    <glyph glyph-name="ocircumflex.sc" 
 />
    <glyph glyph-name="odieresis.sc" 
 />
    <glyph glyph-name="ograve.sc" 
 />
    <glyph glyph-name="ohungarumlaut.sc" 
 />
    <glyph glyph-name="omacron.sc" 
 />
    <glyph glyph-name="oslash.sc" 
 />
    <glyph glyph-name="otilde.sc" 
 />
    <glyph glyph-name="oe.sc" 
 />
    <glyph glyph-name="p.sc" horiz-adv-x="1165" 
d="M766 862h-371l-65 -366h362q98 0 168 48t84 135t-33 135t-145 48zM776 1004q158 0 252 -92t70 -238q-24 -147 -133 -234q-111 -86 -291 -86h-369l-61 -354h-156l176 1004h512z" />
    <glyph glyph-name="thorn.sc" 
 />
    <glyph glyph-name="q.sc" horiz-adv-x="1300" 
d="M576 125q169 0 296 105q127 106 158 272t-53 272t-254 106t-297 -104q-127 -106 -157 -273t54 -273t253 -105zM571 -20q-241 0 -369 156t-90 374t211 366t411 148t366 -154q127 -154 90 -378q-27 -144 -112 -260t-214 -183l185 -164l-119 -88l-221 197q-59 -14 -138 -14z
" />
    <glyph glyph-name="r.sc" horiz-adv-x="1208" 
d="M766 862h-371l-61 -342h362q96 0 161 43t79 127t-32 128t-138 44zM786 1004q152 0 242 -92t64 -232q-39 -221 -256 -283l192 -387l2 -10h-160l-184 379h-377l-65 -379h-156l176 1004h522z" />
    <glyph glyph-name="racute.sc" 
 />
    <glyph glyph-name="rcaron.sc" 
 />
    <glyph glyph-name="rcommaaccent.sc" 
 />
    <glyph glyph-name="s.sc" horiz-adv-x="1130" 
d="M492 -20q-276 0 -455 143l86 121q137 -123 379 -123q303 0 336 162q14 73 -47 101t-228 50q-267 35 -342 105q-74 70 -52 196q22 127 152 208t312 81t283 -70t131 -178l-132 -53q-37 160 -280 160q-129 0 -213 -43t-97 -114q-13 -70 49 -104t182 -50t176 -26
q144 -28 213 -90q69 -61 50 -182q-27 -143 -159 -219q-133 -75 -344 -75z" />
    <glyph glyph-name="sacute.sc" 
 />
    <glyph glyph-name="scaron.sc" 
 />
    <glyph glyph-name="scedilla.sc" 
 />
    <glyph glyph-name="scommaaccent.sc" 
 />
    <glyph glyph-name="t.sc" horiz-adv-x="1034" 
d="M156 1004h901l-25 -142h-375l-151 -862h-154l152 862h-373z" />
    <glyph glyph-name="tbar.sc" 
 />
    <glyph glyph-name="tcaron.sc" 
 />
    <glyph glyph-name="uni0163.sc" 
 />
    <glyph glyph-name="uni021B.sc" 
 />
    <glyph glyph-name="u.sc" horiz-adv-x="1234" 
d="M537 -20q-213 0 -325 110t-75 316l105 598h155l-108 -615q-45 -264 250 -264q319 0 368 281l107 598h155l-108 -609q-73 -415 -524 -415z" />
    <glyph glyph-name="uacute.sc" 
 />
    <glyph glyph-name="ucircumflex.sc" 
 />
    <glyph glyph-name="udieresis.sc" 
 />
    <glyph glyph-name="ugrave.sc" 
 />
    <glyph glyph-name="uhungarumlaut.sc" 
 />
    <glyph glyph-name="umacron.sc" 
 />
    <glyph glyph-name="uogonek.sc" 
 />
    <glyph glyph-name="uring.sc" 
 />
    <glyph glyph-name="v.sc" horiz-adv-x="1167" 
d="M127 1004h154l239 -822l527 822h167v-9l-643 -995h-147l-297 995v9z" />
    <glyph glyph-name="w.sc" horiz-adv-x="1597" 
d="M137 1004h146l116 -773l424 734h105l162 -738l385 777h161l-2 -9l-504 -995h-129l-161 721l-416 -721h-129l-158 995v9z" />
    <glyph glyph-name="wacute.sc" 
 />
    <glyph glyph-name="wcircumflex.sc" 
 />
    <glyph glyph-name="wdieresis.sc" 
 />
    <glyph glyph-name="wgrave.sc" 
 />
    <glyph glyph-name="x.sc" horiz-adv-x="1142" 
d="M-18 0v10l501 516l-301 469l2 9h160l242 -371l362 371h189l-2 -9l-471 -485l323 -502l-2 -8h-164l-262 403l-391 -403h-186z" />
    <glyph glyph-name="y.sc" horiz-adv-x="1087" 
d="M1120 1004l-2 -9l-516 -604l-67 -391h-156l70 403l-306 592l2 9h158l234 -480l399 480h184z" />
    <glyph glyph-name="yacute.sc" 
 />
    <glyph glyph-name="ycircumflex.sc" 
 />
    <glyph glyph-name="ydieresis.sc" 
 />
    <glyph glyph-name="ygrave.sc" 
 />
    <glyph glyph-name="z.sc" horiz-adv-x="1101" 
d="M1063 1004l-19 -113l-772 -750h656l-25 -141h-880l18 113l770 749h-616l24 142h844z" />
    <glyph glyph-name="zacute.sc" 
 />
    <glyph glyph-name="zcaron.sc" 
 />
    <glyph glyph-name="zdotaccent.sc" 
 />
    <glyph glyph-name="braceleft.case" 
 />
    <glyph glyph-name="braceright.case" 
 />
    <glyph glyph-name="bracketleft.case" 
 />
    <glyph glyph-name="bracketright.case" 
 />
    <glyph glyph-name="parenleft.case" 
 />
    <glyph glyph-name="parenright.case" 
 />
    <glyph glyph-name="emdash.case" 
 />
    <glyph glyph-name="endash.case" 
 />
    <glyph glyph-name="hyphen.case" 
 />
    <glyph glyph-name="guillemotleft.case" 
 />
    <glyph glyph-name="guillemotright.case" 
 />
    <glyph glyph-name="guilsinglleft.case" 
 />
    <glyph glyph-name="guilsinglright.case" 
 />
    <glyph glyph-name="bar.case" 
 />
    <glyph glyph-name="at.case" 
 />
    <glyph glyph-name="uni0308.case" horiz-adv-x="0" 
 />
    <glyph glyph-name="uni0307.case" horiz-adv-x="0" 
 />
    <glyph glyph-name="gravecomb.case" horiz-adv-x="0" 
 />
    <glyph glyph-name="acutecomb.case" horiz-adv-x="0" 
 />
    <glyph glyph-name="uni030B.case" horiz-adv-x="0" 
 />
    <glyph glyph-name="uni0302.case" horiz-adv-x="0" 
 />
    <glyph glyph-name="uni030C.case" horiz-adv-x="0" 
 />
    <glyph glyph-name="uni0306.case" horiz-adv-x="0" 
 />
    <glyph glyph-name="uni030A.case" horiz-adv-x="0" 
 />
    <glyph glyph-name="tildecomb.case" horiz-adv-x="0" 
 />
    <glyph glyph-name="uni0304.case" horiz-adv-x="0" 
 />
    <glyph glyph-name="uni0326.case" horiz-adv-x="0" 
 />
    <glyph glyph-name="uni0327.case" horiz-adv-x="0" 
 />
    <glyph glyph-name="uni0328.case" horiz-adv-x="0" 
 />
    <glyph glyph-name="uni0335.case" horiz-adv-x="0" 
 />
    <glyph glyph-name="uni0336.case" horiz-adv-x="0" 
 />
    <glyph glyph-name="uni0337.case" horiz-adv-x="0" 
 />
    <glyph glyph-name="uni0338.case" horiz-adv-x="0" 
 />
    </font>
</defs>
</svg>
